<?xml version="1.0" standalone="no"?>
<!DOCTYPE svg PUBLIC "-//W3C//DTD SVG 20010904//EN"
 "http://www.w3.org/TR/2001/REC-SVG-20010904/DTD/svg10.dtd">
<svg version="1.0" xmlns="http://www.w3.org/2000/svg"
 width="720.000000pt" height="720.000000pt" viewBox="0 0 720.000000 720.000000"
 preserveAspectRatio="xMidYMid meet">

<g transform="translate(0.000000,720.000000) scale(0.100000,-0.100000)"
fill="#000000" stroke="none">
<path d="M1197 7159 c-21 -22 -35 -44 -32 -49 9 -14 34 0 41 22 3 12 18 32 32
45 16 15 20 23 11 23 -8 0 -32 -18 -52 -41z"/>
<path d="M1444 7185 c-4 -8 -3 -22 0 -31 3 -9 2 -12 -5 -9 -5 4 -23 1 -40 -5
-20 -9 -29 -19 -29 -36 0 -15 -6 -24 -15 -24 -8 0 -15 -6 -15 -12 0 -10 -3 -9
-9 0 -6 10 -10 3 -15 -22 -5 -24 -12 -36 -24 -36 -41 -1 -67 -50 -26 -50 8 0
14 -5 14 -11 0 -5 -4 -8 -9 -4 -6 3 -14 -3 -20 -12 -8 -14 -12 -16 -22 -5 -11
10 -19 6 -41 -19 -15 -16 -28 -36 -28 -44 0 -7 -4 -15 -10 -17 -12 -4 -14 -42
-5 -79 4 -16 2 -31 -7 -40 -7 -8 -13 -23 -13 -34 0 -11 -7 -20 -15 -20 -25 0
-60 -38 -60 -65 0 -15 -3 -20 -8 -13 -5 8 -12 1 -21 -19 -13 -29 -12 -33 6
-47 28 -24 32 -43 12 -64 -9 -10 -19 -29 -21 -42 -4 -20 -1 -23 28 -22 34 1
52 -8 41 -19 -4 -4 -13 -2 -21 5 -11 9 -14 7 -18 -13 -3 -13 -1 -32 4 -41 6
-9 7 -19 4 -22 -11 -11 -18 5 -19 41 -1 20 -6 36 -12 36 -20 0 -8 -75 30 -177
20 -57 41 -103 46 -103 5 0 9 -7 9 -16 0 -9 8 -31 19 -48 10 -17 26 -56 36
-86 10 -30 21 -59 25 -63 9 -10 22 51 14 64 -3 5 0 8 6 7 7 -2 21 9 33 24 17
22 18 30 7 43 -9 11 -10 18 -1 29 9 11 8 15 -4 20 -9 3 -18 -1 -21 -9 -8 -20
-22 -19 -26 3 -3 14 -6 13 -17 -7 -10 -18 -10 -25 -1 -31 7 -4 9 -13 5 -19
-11 -19 -37 9 -32 36 2 12 0 20 -4 17 -5 -3 -9 -1 -9 4 0 5 9 12 20 15 11 3
20 12 20 20 0 25 -18 29 -33 7 -7 -11 -17 -17 -20 -14 -10 10 12 44 29 44 9 0
12 5 8 11 -4 7 0 9 14 5 15 -5 20 -2 18 11 -1 13 7 18 24 20 14 0 31 1 38 2
26 2 0 21 -29 21 -38 0 -46 22 -20 56 l21 27 0 -32 c0 -41 20 -40 21 2 1 31 2
31 8 5 6 -28 26 -27 30 2 5 48 18 123 20 111 0 -7 7 -11 16 -7 11 4 15 -1 15
-19 0 -14 5 -24 12 -22 7 1 12 -13 12 -40 1 -22 -2 -39 -6 -36 -5 2 -8 13 -8
24 0 10 -4 19 -9 19 -15 0 -20 -15 -11 -30 5 -9 4 -18 -5 -24 -8 -6 -17 -24
-20 -41 -6 -27 -5 -28 8 -12 15 18 32 24 22 7 -10 -17 4 -11 25 10 11 11 20
25 20 30 0 6 4 18 10 28 19 34 38 88 44 121 5 30 4 33 -14 28 -10 -3 -24 1
-31 9 -8 10 -9 14 0 14 6 0 17 12 24 28 6 15 17 31 24 35 7 4 13 18 13 30 0
30 56 107 78 107 8 0 -10 -55 -34 -104 -14 -27 -23 -54 -20 -60 3 -7 5 -6 5 2
1 7 5 11 10 8 5 -3 14 9 21 27 6 17 22 56 36 85 22 47 22 53 7 50 -15 -3 -17
3 -15 36 3 25 0 36 -7 32 -5 -4 -8 -13 -5 -20 3 -8 1 -17 -5 -21 -7 -3 -11 2
-11 14 0 12 -7 21 -15 21 -12 0 -12 3 3 18 9 10 24 28 32 40 9 13 18 18 23 13
16 -16 37 15 43 62 l6 43 24 -20 c14 -13 19 -25 13 -30 -11 -12 -12 -26 -1
-26 4 0 13 14 20 30 8 17 18 27 24 24 5 -4 3 5 -7 19 -16 24 -15 25 3 20 15
-3 21 2 25 22 3 21 0 29 -14 32 -21 6 -27 25 -7 21 7 -2 14 7 16 20 2 16 12
25 32 29 16 3 31 12 34 20 4 8 1 11 -5 8 -16 -11 1 67 18 85 14 13 15 11 10
-22 -3 -21 -2 -38 2 -38 13 0 32 26 24 33 -3 4 6 19 20 33 15 15 27 31 27 35
0 13 -44 11 -58 -3 -9 -9 -12 -9 -12 0 0 22 -29 13 -33 -10 l-4 -23 -2 23 c-1
22 -3 22 -151 22 -125 0 -152 -3 -156 -15z m286 -96 c0 -11 -4 -17 -10 -14 -5
3 -10 13 -10 21 0 8 5 14 10 14 6 0 10 -9 10 -21z m-73 -146 c4 -12 -25 -22
-44 -16 -7 3 -13 9 -13 14 0 6 4 8 9 4 5 -3 13 -1 16 5 8 13 27 8 32 -7z m-80
-43 c-3 -10 -1 -20 4 -22 4 -2 4 -10 -1 -18 -8 -12 -12 -12 -18 -2 -11 17 -3
62 10 62 6 0 8 -9 5 -20z m-61 -47 c16 -21 18 -53 4 -53 -5 0 -10 6 -10 14 0
7 -7 19 -15 26 -8 7 -12 16 -9 21 8 13 15 11 30 -8z m-330 -59 c-8 -22 -36
-17 -36 7 0 11 4 18 9 14 5 -3 13 5 17 17 l8 23 4 -23 c2 -13 1 -30 -2 -38z
m21 14 c-3 -7 -5 -2 -5 12 0 14 2 19 5 13 2 -7 2 -19 0 -25z m260 -20 c-3 -7
-5 -2 -5 12 0 14 2 19 5 13 2 -7 2 -19 0 -25z m-130 -50 c-3 -8 -6 -5 -6 6 -1
11 2 17 5 13 3 -3 4 -12 1 -19z m118 -28 c-9 -14 -25 5 -25 30 0 12 3 12 16
-2 9 -9 13 -21 9 -28z m-70 20 c3 -5 -1 -10 -10 -10 -9 0 -13 5 -10 10 3 6 8
10 10 10 2 0 7 -4 10 -10z m31 -67 c-10 -10 -19 5 -10 18 6 11 8 11 12 0 2 -7
1 -15 -2 -18z m46 -15 c-7 -7 -12 -8 -12 -2 0 14 12 26 19 19 2 -3 -1 -11 -7
-17z m-116 -56 c-11 -10 -15 4 -8 28 l7 25 3 -23 c2 -13 1 -26 -2 -30z m114
29 c0 -6 -4 -13 -10 -16 -5 -3 -10 1 -10 9 0 9 5 16 10 16 6 0 10 -4 10 -9z
m-370 -18 c0 -22 -17 -50 -25 -42 -6 7 11 59 20 59 3 0 5 -8 5 -17z m340 -18
c0 -8 -4 -15 -10 -15 -5 0 -10 7 -10 15 0 8 5 15 10 15 6 0 10 -7 10 -15z
m-40 -55 l2 35 9 -38 c7 -29 6 -42 -5 -53 -31 -31 -38 -13 -26 71 2 13 5 8 10
-15 l7 -35 3 35z m-56 -32 c-4 -24 -13 -52 -21 -63 -13 -18 -14 -16 -10 21 5
39 22 84 32 84 3 0 2 -19 -1 -42z m-184 -18 c0 -5 -2 -10 -4 -10 -3 0 -8 5
-11 10 -3 6 -1 10 4 10 6 0 11 -4 11 -10z m-50 -40 c0 -5 -7 -10 -15 -10 -8 0
-15 5 -15 10 0 6 7 10 15 10 8 0 15 -4 15 -10z m50 -10 c0 -5 -4 -10 -10 -10
-5 0 -10 5 -10 10 0 6 5 10 10 10 6 0 10 -4 10 -10z m230 -51 c0 -27 -2 -29
-15 -16 -7 8 -17 27 -21 42 -6 25 -5 26 15 16 14 -8 21 -21 21 -42z m27 -11
c-3 -7 -5 -2 -5 12 0 14 2 19 5 13 2 -7 2 -19 0 -25z m-312 -18 c3 -5 1 -10
-4 -10 -6 0 -11 5 -11 10 0 6 2 10 4 10 3 0 8 -4 11 -10z m87 -72 c-7 -7 -12
-8 -12 -2 0 14 12 26 19 19 2 -3 -1 -11 -7 -17z m-57 2 c3 -5 2 -10 -4 -10 -5
0 -13 5 -16 10 -3 6 -2 10 4 10 5 0 13 -4 16 -10z m-5 -57 c0 -5 -8 -17 -17
-28 -14 -18 -15 -18 -9 -2 3 10 6 23 6 28 0 5 5 9 10 9 6 0 10 -3 10 -7z m60
-18 c0 -16 -9 -19 -34 -9 -25 9 -19 24 9 24 16 0 25 -6 25 -15z m44 -181 c9
-23 8 -26 -6 -21 -7 2 -18 -3 -25 -12 -6 -9 -15 -13 -18 -9 -4 4 0 14 9 23 9
9 16 21 16 26 0 15 17 10 24 -7z"/>
<path d="M1891 7164 c-10 -28 -17 -35 -32 -31 -13 4 -19 0 -19 -13 0 -13 6
-16 25 -12 18 3 25 0 25 -12 0 -9 -8 -16 -20 -16 -24 0 -40 -29 -29 -55 6 -15
8 -16 8 -4 1 17 29 34 39 24 3 -3 1 -5 -4 -5 -6 0 -16 -16 -23 -35 -7 -19 -17
-35 -22 -35 -5 0 -8 -5 -6 -12 1 -6 -6 -14 -15 -16 -14 -3 -18 3 -18 27 0 23
-5 31 -18 31 -10 0 -23 5 -30 12 -9 9 -12 7 -12 -10 0 -15 5 -20 15 -16 23 9
41 -47 20 -62 -9 -6 -16 -29 -18 -53 -1 -22 -6 -41 -11 -41 -11 0 2 -53 15
-61 7 -4 6 -29 -1 -71 -13 -73 -10 -139 4 -83 16 66 41 143 45 139 3 -2 13 13
23 33 19 37 19 27 2 -36 -5 -16 -4 -22 4 -17 6 3 13 -3 17 -14 12 -37 35 -16
35 33 0 18 2 19 10 7 6 -8 7 -34 4 -56 -7 -48 19 -114 31 -81 10 25 20 21 23
-8 1 -19 -3 -25 -17 -25 -27 0 -34 -27 -9 -34 13 -3 26 1 33 11 8 11 19 14 31
9 15 -6 17 -5 7 5 -24 24 -14 45 32 66 44 20 45 20 45 1 0 -26 -29 -68 -47
-68 -8 0 -11 -5 -8 -10 4 -6 15 -8 26 -5 20 7 27 -9 9 -20 -5 -3 -10 -15 -10
-26 0 -12 -7 -19 -20 -19 -11 0 -20 -6 -20 -14 0 -7 -10 -24 -22 -38 -13 -13
-23 -36 -23 -51 -1 -31 7 -34 29 -11 15 14 16 14 16 -4 0 -17 -19 -37 -59 -61
-7 -5 -15 -20 -16 -34 -2 -13 -8 -34 -14 -45 -14 -26 -14 -55 -1 -47 15 9 12
-2 -6 -19 -21 -22 -33 -20 -27 4 3 11 1 20 -5 20 -15 0 -20 -20 -15 -57 5 -30
-23 -113 -38 -113 -4 0 -9 -9 -12 -20 -7 -26 -27 -26 -27 1 0 11 -5 30 -12 42
-7 12 -12 27 -13 32 -1 22 -34 20 -34 -2 0 -45 -8 -99 -15 -112 -7 -11 -4 -13
18 -7 22 5 26 3 26 -15 0 -23 -30 -79 -42 -79 -4 0 -10 5 -14 12 -5 7 -11 5
-21 -7 -11 -16 -13 -17 -13 -2 0 9 5 27 11 41 9 20 9 29 -2 42 -18 22 -20 44
-3 44 16 0 19 45 4 55 -15 9 -12 25 5 25 17 0 18 6 5 35 -8 19 -9 19 -9 -3 -1
-13 -5 -21 -10 -18 -5 4 -12 0 -14 -6 -4 -10 -8 -9 -16 2 -7 9 -11 10 -11 3 0
-6 9 -18 20 -26 16 -11 19 -21 14 -41 -8 -33 -21 -41 -39 -26 -8 7 -22 10 -30
6 -17 -6 -21 19 -5 29 6 3 10 18 10 33 0 39 46 132 65 132 9 0 15 6 14 13 -4
35 3 56 21 62 11 3 20 15 20 26 0 22 -18 26 -26 4 -4 -8 -9 -13 -14 -10 -4 2
-13 -8 -20 -23 -7 -15 -16 -35 -21 -44 -5 -10 -9 -25 -9 -33 0 -8 -6 -15 -13
-15 -7 0 -13 -9 -14 -21 -2 -26 -43 -90 -43 -68 0 9 7 22 16 30 10 8 14 23 12
40 -3 16 -1 26 4 23 5 -3 6 6 2 20 -4 16 -2 26 5 26 6 0 11 15 11 33 0 22 3
28 9 18 7 -11 11 -10 20 7 15 29 14 37 -4 22 -12 -10 -15 -9 -15 4 0 9 7 19
15 22 22 9 18 17 -11 31 -21 10 -26 9 -31 -5 -4 -9 -10 -20 -15 -23 -5 -3 -5
-16 0 -30 10 -27 6 -49 -10 -49 -6 0 -8 11 -4 28 6 26 6 26 -9 7 -18 -23 -45
-108 -45 -141 0 -13 -4 -25 -10 -29 -6 -3 -6 -15 0 -30 6 -15 6 -27 0 -30 -6
-4 -10 -15 -10 -26 0 -10 -4 -19 -9 -19 -14 0 -24 37 -15 52 13 21 13 129 0
125 -6 -2 -11 -13 -10 -25 0 -12 -4 -18 -9 -15 -5 3 -7 -13 -5 -38 2 -30 -1
-44 -9 -45 -7 -1 -16 -2 -19 -3 -4 0 5 -12 20 -26 14 -13 26 -30 26 -37 0 -10
-2 -10 -9 1 -5 7 -11 9 -14 4 -3 -5 -2 -15 3 -23 14 -23 -13 -75 -34 -63 -6 4
-15 8 -21 9 -5 0 -15 2 -22 2 -6 1 -14 10 -17 20 -3 9 -3 -5 -1 -32 5 -59 11
-67 24 -32 10 24 30 34 43 21 10 -10 -16 -55 -32 -56 -23 -2 -23 -2 -55 5 -28
6 -29 5 -11 -9 10 -8 22 -12 26 -10 7 4 78 -21 89 -31 2 -2 -7 -12 -20 -23
-13 -11 -19 -20 -12 -21 20 0 43 30 43 56 0 14 4 23 9 19 6 -3 13 10 17 29 8
43 76 119 98 110 20 -8 21 -24 2 -24 -42 0 -88 -80 -101 -172 -7 -54 0 -62 17
-20 9 22 12 24 15 9 5 -19 -21 -67 -36 -67 -5 0 -12 10 -15 23 -6 18 -9 14
-20 -27 -8 -27 -22 -56 -32 -63 -15 -11 -16 -17 -7 -31 9 -15 6 -22 -12 -40
-13 -12 -30 -22 -39 -22 -12 0 -16 -9 -16 -34 0 -25 -5 -35 -20 -39 -25 -6
-36 9 -15 20 18 11 24 54 8 60 -7 3 -13 -1 -13 -9 0 -13 -42 -58 -54 -58 -12
0 -6 28 9 40 8 7 15 16 15 21 0 17 -25 9 -38 -11 -7 -11 -17 -20 -22 -20 -6 0
-10 9 -10 20 0 11 -4 20 -10 20 -12 0 -13 -12 -1 -43 8 -21 7 -24 -8 -20 -11
3 -21 -4 -29 -22 -10 -22 -15 -25 -27 -15 -12 10 -15 10 -15 0 0 -8 -9 -11
-24 -8 -19 4 -26 0 -28 -15 -2 -13 -12 -21 -28 -23 -43 -4 -80 -23 -80 -39 0
-11 -6 -15 -18 -11 -12 4 -23 -3 -36 -25 -17 -29 -17 -31 0 -43 13 -10 14 -15
4 -21 -9 -5 -11 -4 -6 3 4 7 1 12 -8 12 -18 0 -21 32 -6 61 7 13 7 19 0 19 -5
0 -10 -6 -10 -14 0 -8 -14 -28 -30 -45 -17 -17 -26 -32 -20 -36 5 -3 10 -1 10
4 0 19 22 12 27 -9 3 -11 12 -20 19 -20 17 0 17 -1 4 -35 -9 -23 -8 -26 5 -21
8 3 15 1 15 -4 0 -6 -11 -10 -25 -10 -16 0 -25 -6 -25 -16 0 -19 32 -12 72 17
15 10 32 19 38 19 6 0 20 9 32 19 11 11 27 17 34 14 12 -4 11 -8 -3 -19 -15
-10 -16 -16 -6 -32 9 -14 9 -22 0 -31 -8 -8 -5 -11 12 -11 16 0 21 4 17 15 -3
8 -1 15 4 15 15 0 12 -34 -5 -56 -8 -10 -15 -33 -15 -51 0 -32 -28 -105 -42
-111 -13 -6 -9 -32 4 -32 6 0 3 -9 -7 -20 -10 -12 -25 -18 -32 -15 -8 2 -11 0
-8 -5 3 -6 13 -10 22 -10 16 0 13 -29 -10 -82 -17 -40 -29 -34 -23 12 4 42 -8
47 -17 8 -10 -44 -33 -93 -61 -135 -22 -33 -26 -48 -21 -72 4 -17 3 -31 -2
-31 -5 0 -18 -17 -29 -37 -10 -20 -27 -50 -36 -67 -23 -42 -22 -46 8 -46 18 0
46 20 95 67 38 37 76 71 85 76 9 5 24 17 34 26 32 30 60 51 69 51 5 0 11 6 14
14 3 7 20 16 37 19 17 4 40 17 50 29 l19 23 1 -23 c0 -24 -106 -136 -120 -127
-13 8 -21 -27 -9 -41 8 -10 5 -15 -16 -20 l-27 -7 5 -81 c3 -44 10 -101 15
-126 9 -39 8 -47 -9 -63 -23 -21 -24 -28 -4 -21 24 9 18 -23 -7 -40 -12 -9
-19 -16 -15 -16 5 0 -10 -25 -32 -57 -23 -31 -41 -64 -41 -74 0 -10 -20 -39
-45 -65 -25 -25 -45 -54 -45 -65 0 -12 -7 -19 -19 -19 -14 0 -21 -10 -25 -35
-4 -19 -12 -35 -18 -35 -6 0 -8 10 -4 25 8 32 -13 68 -31 53 -7 -6 -13 -23
-13 -37 0 -24 -5 -28 -42 -37 -36 -7 -43 -13 -46 -35 -2 -21 -10 -28 -32 -31
-18 -3 -35 2 -44 10 -13 14 -14 12 -11 -16 3 -24 0 -32 -15 -37 -11 -4 -24 -4
-30 0 -12 8 -48 -11 -82 -43 -22 -20 -34 -24 -62 -19 -26 4 -38 1 -52 -14 -13
-14 -28 -19 -53 -17 -33 3 -36 6 -39 38 -2 19 -8 39 -13 45 -16 16 -10 33 20
51 16 10 32 26 34 36 6 22 -9 24 -21 2 -14 -25 -29 -10 -36 36 -3 23 -12 40
-19 40 -16 0 -77 62 -77 78 0 6 -11 28 -25 48 -14 20 -25 42 -25 49 0 7 -7 26
-15 41 l-15 29 0 -53 c0 -33 4 -51 10 -47 5 3 10 -1 10 -10 0 -9 -5 -13 -10
-10 -7 4 -10 -115 -10 -350 0 -396 -5 -377 69 -292 28 33 41 58 41 78 0 16 9
38 21 50 11 11 18 27 15 35 -4 9 2 14 17 14 13 0 28 5 35 12 9 9 12 8 12 -5 0
-9 -7 -17 -15 -17 -30 0 -27 -31 9 -85 20 -30 36 -62 36 -70 0 -8 5 -15 10
-15 6 0 10 -10 10 -23 0 -31 29 -31 41 0 8 23 29 32 29 13 0 -5 -4 -10 -10
-10 -5 0 -10 -9 -10 -20 0 -20 -46 -72 -86 -97 -16 -11 -13 -12 23 -8 l42 5 7
-46 c4 -29 2 -50 -5 -57 -14 -14 -14 -37 -1 -37 6 0 10 7 10 15 0 8 4 15 9 15
18 0 20 -16 6 -43 -7 -14 -10 -27 -5 -29 4 -2 10 -13 14 -25 6 -18 3 -20 -12
-16 -13 3 -25 -3 -36 -19 -15 -20 -15 -23 -1 -26 8 -2 15 -8 15 -13 0 -5 5 -9
11 -9 6 0 8 8 5 18 -3 9 -1 24 4 32 5 8 10 11 10 6 0 -5 12 1 26 15 l27 24 -6
-25 c-4 -14 -7 -31 -7 -38 0 -7 -4 -11 -9 -8 -4 3 -14 -7 -20 -21 -10 -23 -10
-29 3 -39 17 -12 22 -64 7 -64 -5 0 -11 15 -15 33 -5 25 -9 29 -16 17 -14 -22
-12 -36 6 -55 21 -21 12 -30 -15 -14 -28 18 -37 5 -25 -39 14 -56 7 -79 -26
-85 -16 -4 -30 -14 -33 -24 -3 -10 -5 -3 -6 15 0 18 3 31 8 27 16 -9 23 13 11
35 -17 32 -27 24 -36 -32 -5 -29 -13 -52 -19 -51 -5 1 -17 -5 -26 -13 -9 -8
-18 -12 -20 -10 -2 2 -16 6 -31 10 -24 6 -28 3 -28 -16 0 -15 3 -19 8 -11 6 9
11 7 20 -7 7 -12 8 -20 2 -20 -5 0 -10 4 -10 9 0 4 -11 6 -23 4 -20 -4 -26
-14 -34 -58 -7 -43 -7 -55 4 -59 7 -3 13 -13 13 -23 0 -10 14 -26 32 -36 26
-15 33 -16 45 -4 12 11 11 18 -2 43 -15 29 -15 29 18 36 37 7 49 3 18 -7 -26
-8 -26 -23 -2 -55 18 -23 21 -23 47 -10 21 12 28 12 31 3 3 -7 11 -13 19 -13
12 0 12 4 2 20 -7 10 -10 20 -8 22 3 2 20 13 38 26 34 24 44 12 15 -20 -9 -10
-13 -21 -9 -25 4 -4 11 -1 16 7 8 13 10 12 10 -2 0 -19 19 -24 36 -10 9 9 84
32 100 32 5 0 -11 -12 -36 -26 -25 -14 -47 -29 -50 -33 -3 -4 -14 -11 -25 -16
l-20 -8 20 -6 c22 -7 26 -34 7 -53 -6 -6 -12 -18 -12 -24 0 -7 -7 -14 -17 -16
-12 -2 -10 -7 11 -18 22 -11 31 -12 46 -2 11 7 33 12 49 12 16 0 48 9 72 20
48 21 74 26 64 10 -3 -5 -47 -23 -98 -39 -51 -16 -105 -36 -122 -45 -16 -9
-35 -16 -41 -16 -15 0 -46 35 -37 43 3 4 1 7 -5 7 -7 0 -12 -6 -12 -13 0 -7
-9 -18 -20 -25 -30 -19 -24 -32 15 -32 19 0 35 -4 35 -8 0 -17 -13 -21 -31
-11 -15 7 -19 6 -19 -6 0 -17 -46 -39 -61 -29 -13 8 -11 22 4 26 9 2 7 8 -6
21 -17 17 -18 16 -13 -40 3 -32 5 -60 6 -63 0 -3 6 2 13 11 13 17 47 22 47 6
0 -5 -9 -11 -19 -14 -11 -3 -22 -12 -25 -20 -5 -13 -10 -11 -27 8 -20 23 -21
24 -35 5 -8 -11 -14 -23 -14 -28 0 -14 -16 -9 -40 12 -30 26 -47 14 -21 -14
l21 -23 -20 -25 c-11 -15 -20 -31 -20 -37 0 -6 -4 -11 -10 -11 -6 0 -6 -10 1
-27 7 -19 7 -29 0 -31 -8 -3 -11 -287 -11 -938 l0 -934 3600 0 3600 0 -2 807
-3 807 -42 8 c-23 3 -59 18 -81 32 -22 14 -52 28 -67 32 -15 4 -29 12 -31 19
-3 7 -24 16 -47 19 -28 4 -47 14 -56 28 -10 17 -11 23 -2 26 8 3 6 9 -6 17
-15 11 -18 29 -18 114 0 67 4 104 13 113 6 6 12 24 12 38 0 14 5 31 12 38 9 9
8 13 -4 17 -13 5 -10 15 14 63 17 31 34 59 39 63 5 3 13 26 18 53 5 26 10 49
13 51 5 5 75 -65 114 -112 14 -18 30 -33 36 -33 18 0 58 -49 52 -64 -3 -8 3
-19 13 -24 16 -9 19 -7 18 13 0 16 -20 42 -60 79 -33 31 -64 56 -69 56 -4 0
-6 7 -2 15 3 8 -3 20 -12 27 -9 7 -30 38 -45 68 -27 53 -27 59 -21 153 4 62
12 101 20 108 16 13 19 79 4 79 -6 0 -9 -3 -9 -7 4 -22 -2 -43 -10 -39 -11 7
-22 67 -22 117 -1 45 -16 86 -52 131 -23 30 -27 44 -22 68 4 16 11 30 16 30 5
0 9 5 9 10 0 6 9 20 20 32 l19 21 36 -24 c19 -13 35 -30 35 -37 0 -7 4 -11 10
-7 5 3 17 -7 26 -22 10 -15 24 -39 32 -52 10 -16 17 -20 25 -12 7 7 6 16 -6
29 -34 37 -16 43 23 8 22 -20 45 -36 50 -36 6 0 10 25 10 55 0 58 -21 105 -46
105 -17 0 -117 76 -123 94 -3 6 3 5 12 -3 15 -12 17 -11 17 8 0 11 -5 21 -11
21 -12 0 -6 222 7 290 5 29 4 33 -7 23 -26 -25 -38 -15 -32 25 3 20 10 41 14
47 5 5 9 24 9 43 0 21 7 40 18 49 13 10 13 13 2 11 -11 -2 -15 7 -16 32 0 46
6 71 18 64 5 -3 6 -14 3 -24 -7 -21 20 -40 54 -40 12 0 21 -6 21 -14 0 -8 7
-17 16 -20 15 -6 15 -8 -1 -26 -9 -10 -14 -24 -10 -29 11 -19 23 -12 18 9 -6
22 21 29 31 8 3 -7 3 -2 0 12 -4 14 -13 32 -20 41 -8 8 -14 23 -14 32 0 9 -7
20 -15 25 -10 5 -13 15 -9 25 8 23 21 21 29 -3 11 -34 24 -13 22 35 -2 48 -13
60 -20 23 -3 -22 -4 -21 -15 6 -9 21 -10 32 -1 42 7 9 8 14 1 14 -5 0 -12 -7
-16 -15 -5 -13 -8 -13 -26 2 -21 18 -27 43 -10 43 6 0 10 -6 11 -12 0 -7 5 -1
11 15 5 15 13 27 17 27 4 0 20 -21 34 -47 l27 -48 0 73 c0 59 -3 72 -16 72
-14 0 -15 9 -10 63 12 119 12 127 -1 127 -7 0 -13 -5 -13 -12 0 -9 -3 -9 -11
-1 -7 7 -8 17 -1 29 7 13 6 31 -3 57 -14 41 -13 57 5 124 9 29 9 50 2 70 -10
27 -10 26 -12 -17 0 -25 -8 -54 -16 -65 -15 -18 -16 -11 -10 95 7 114 3 155
-15 144 -5 -3 -7 -10 -4 -15 4 -5 2 -9 -4 -9 -6 0 -15 9 -22 21 -16 31 3 47
33 27 35 -23 51 -13 33 22 -8 16 -15 37 -15 47 0 13 -9 19 -30 20 -27 2 -30 0
-24 -22 7 -28 -12 -35 -20 -7 -3 9 -8 54 -11 100 -3 56 -10 88 -20 98 -18 18
-26 147 -10 163 12 11 16 -10 5 -24 -7 -9 -10 -18 -6 -22 3 -3 6 -1 6 5 0 7 4
12 9 12 12 0 21 -51 22 -132 1 -44 6 -72 15 -79 8 -6 14 -22 14 -35 0 -21 35
-53 46 -42 6 6 7 38 5 88 -2 38 -4 41 -11 23 -13 -33 -20 -28 -20 13 0 33 2
35 17 23 15 -13 16 -11 10 21 -21 122 -20 209 3 195 6 -3 10 3 10 15 0 12 -4
19 -9 16 -5 -4 -7 2 -4 13 3 12 -3 24 -18 35 -13 9 -18 16 -11 16 6 0 12 7 12
16 0 8 5 12 10 9 12 -7 12 21 1 50 -7 17 -10 15 -21 -18 -14 -37 -30 -49 -30
-22 0 8 5 15 11 15 6 0 9 6 6 14 -3 8 1 20 9 27 8 7 12 19 9 28 -4 9 -16 59
-27 111 -18 85 -22 108 -27 159 -1 11 -4 12 -12 4 -14 -14 -49 14 -49 40 0 13
-5 17 -15 13 -11 -4 -15 1 -15 17 0 26 10 41 28 44 7 2 12 -7 12 -22 0 -14 4
-25 9 -25 5 0 11 -9 14 -21 3 -12 10 -18 16 -15 12 8 8 56 -6 64 -6 4 -13 23
-16 42 -2 19 -17 80 -32 135 -15 55 -30 123 -34 150 l-7 50 -11 -55 c-9 -44
-12 -51 -18 -32 -4 12 -10 22 -14 22 -6 0 -25 39 -36 77 -5 18 -3 22 8 17 9
-3 18 -17 22 -32 6 -23 8 -24 16 -10 13 23 -6 69 -31 75 -23 6 -27 53 -10 99
9 24 9 25 -5 14 -12 -10 -16 -9 -21 3 -3 9 -12 18 -19 21 -10 3 -12 0 -8 -11
4 -11 2 -14 -5 -9 -7 4 -12 19 -12 34 0 29 -93 224 -116 243 -8 6 -14 20 -14
30 0 10 -4 20 -10 24 -5 3 -7 12 -3 20 3 9 -1 15 -11 15 -16 0 -22 31 -17 87
1 12 -3 24 -9 28 -5 3 -10 18 -10 33 0 15 -7 38 -15 52 -8 14 -21 40 -30 58
-8 17 -22 32 -30 32 -8 0 -15 5 -15 11 0 5 4 7 10 4 6 -3 10 3 10 14 0 12 -5
21 -11 21 -5 0 -7 5 -4 10 10 16 24 2 41 -40 9 -21 22 -41 30 -44 20 -8 17 17
-6 47 -11 14 -20 28 -20 32 0 12 -25 32 -49 40 -24 7 -24 6 -18 -46 4 -41 3
-48 -4 -29 -11 28 -8 112 4 121 11 8 -3 40 -14 33 -5 -3 -9 3 -9 14 0 27 -57
102 -78 102 -13 -1 -9 -8 16 -30 23 -21 32 -39 32 -60 0 -18 -4 -29 -10 -25
-5 3 -10 15 -10 27 0 14 -5 18 -16 14 -10 -4 -18 3 -26 24 -5 17 -18 35 -29
40 -12 7 -792 10 -2232 10 l-2213 0 -13 -36z m506 -6 c-3 -8 -6 -5 -6 6 -1 11
2 17 5 13 3 -3 4 -12 1 -19z m3938 2 c3 -5 1 -10 -4 -10 -6 0 -11 5 -11 10 0
6 2 10 4 10 3 0 8 -4 11 -10z m-3737 -36 c-4 -20 -34 -41 -44 -31 -8 8 24 47
38 47 5 0 8 -7 6 -16z m-583 -30 c-4 -40 -11 -52 -24 -38 -8 8 13 74 23 74 3
0 3 -16 1 -36z m35 6 c0 -5 -5 -10 -11 -10 -5 0 -7 5 -4 10 3 6 8 10 11 10 2
0 4 -4 4 -10z m1463 -92 c6 -4 -1 -10 -16 -13 -15 -4 -27 -11 -27 -17 0 -5 -4
-6 -10 -3 -17 10 -11 37 13 59 22 21 22 21 26 1 1 -11 8 -23 14 -27z m-1512
10 c2 -25 -3 -53 -12 -62 -5 -6 -9 6 -9 32 0 23 5 42 10 42 6 0 11 -6 11 -12z
m1108 -72 c-12 -10 -49 -16 -49 -7 0 16 34 31 44 21 5 -6 8 -11 5 -14z m-1029
0 c0 -21 -11 -46 -20 -46 -12 0 -20 28 -14 45 8 19 34 20 34 1z m-124 -33
c-11 -11 -19 6 -11 24 8 17 8 17 12 0 3 -10 2 -21 -1 -24z m234 13 c0 -2 -8
-10 -17 -17 -16 -13 -17 -12 -4 4 13 16 21 21 21 13z m1200 -5 c0 -6 -4 -13
-10 -16 -5 -3 -10 1 -10 9 0 9 5 16 10 16 6 0 10 -4 10 -9z m-446 -69 c-29
-38 -46 -54 -52 -47 -6 5 25 60 50 88 35 39 36 5 2 -41z m96 59 c0 -6 -4 -13
-10 -16 -5 -3 -10 1 -10 9 0 9 5 16 10 16 6 0 10 -4 10 -9z m403 -11 c-7 -28
-23 -36 -23 -11 0 10 6 22 13 24 6 3 13 6 14 6 0 1 -1 -8 -4 -19z m-1623 0 c0
-21 -35 -130 -42 -130 -15 0 -13 37 4 72 10 20 18 44 18 53 0 8 5 15 10 15 6
0 10 -5 10 -10z m1340 6 c0 -3 -4 -8 -10 -11 -5 -3 -10 -1 -10 4 0 6 5 11 10
11 6 0 10 -2 10 -4z m-920 -32 c0 -8 -5 -12 -10 -9 -6 4 -8 11 -5 16 9 14 15
11 15 -7z m800 -2 c0 -13 -39 -32 -45 -22 -3 5 3 13 12 19 22 13 33 14 33 3z
m-971 -9 c-1 -16 -35 -67 -47 -71 -18 -6 -14 12 8 36 11 12 20 26 20 32 0 5 5
10 10 10 6 0 10 -3 9 -7z m4487 -30 c-7 -7 -26 7 -26 19 0 6 6 6 15 -2 9 -7
13 -15 11 -17z m-3489 -5 c-3 -8 -6 -5 -6 6 -1 11 2 17 5 13 3 -3 4 -12 1 -19z
m323 12 c0 -5 -7 -10 -16 -10 -8 0 -12 5 -9 10 3 6 10 10 16 10 5 0 9 -4 9
-10z m-210 -29 c0 -12 -20 -25 -27 -18 -7 7 6 27 18 27 5 0 9 -4 9 -9z m-1057
-22 c-4 -15 -9 -17 -17 -9 -8 8 -7 13 4 20 8 5 16 10 17 10 0 0 -1 -9 -4 -21z
m873 -10 c-3 -17 -6 -38 -6 -45 0 -8 -6 -11 -17 -7 -12 5 -15 2 -10 -10 3 -8
-1 -21 -9 -28 -11 -9 -12 -15 -3 -25 9 -11 7 -14 -7 -15 -11 0 -29 -13 -42
-30 -23 -29 -23 -29 -3 -29 27 0 27 -16 1 -30 -11 -6 -20 -17 -20 -24 0 -7
-11 -23 -25 -36 -18 -17 -25 -19 -25 -9 0 8 6 21 12 27 10 10 10 14 0 21 -16
9 -6 61 12 62 6 0 3 3 -6 7 -15 6 -13 12 15 49 31 41 57 55 57 31 0 -6 3 -9 6
-6 3 4 1 23 -5 43 -8 31 -7 36 5 31 8 -3 14 -2 14 2 0 13 39 52 52 52 6 0 8
-12 4 -31z m3599 -49 c6 -33 5 -34 -10 -16 -8 11 -15 26 -15 33 0 8 -8 26 -17
41 l-16 27 25 -25 c14 -14 29 -41 33 -60z m-4065 41 c0 -5 -7 -14 -15 -21 -16
-14 -18 -10 -9 14 6 17 24 22 24 7z m360 -11 c-20 -13 -33 -13 -25 0 3 6 14
10 23 10 15 0 15 -2 2 -10z m533 -20 c-11 -9 -24 -26 -27 -38 -4 -12 -14 -22
-23 -22 -14 0 -14 2 0 18 10 10 17 22 17 27 0 16 33 45 43 38 6 -4 2 -13 -10
-23z m-1303 2 c0 -5 -7 -17 -15 -28 -14 -19 -14 -19 -15 2 0 11 3 24 7 27 9
10 23 9 23 -1z m970 -33 c0 -11 -4 -17 -10 -14 -5 3 -11 -4 -11 -17 -1 -21 -2
-21 -7 -3 l-5 20 -8 -20 c-7 -19 -8 -19 -8 1 -1 12 6 24 14 28 8 3 15 9 14 13
-3 17 1 24 11 18 6 -3 10 -15 10 -26z m60 5 c0 -4 -9 -23 -19 -43 -11 -20 -23
-45 -27 -56 -6 -18 -8 -18 -11 -2 -5 20 34 107 48 107 5 0 9 -3 9 -6z m-1185
-22 c-3 -8 0 -22 7 -30 11 -13 10 -15 -4 -9 -10 3 -20 2 -23 -3 -10 -17 -25
-11 -25 9 0 32 9 47 30 47 14 0 19 -5 15 -14z m100 8 c-3 -5 -13 -10 -21 -10
-8 0 -14 5 -14 10 0 6 9 10 21 10 11 0 17 -4 14 -10z m753 -28 c-8 -9 -25 -38
-37 -64 -13 -27 -27 -48 -32 -48 -20 0 -2 44 34 84 11 12 24 32 29 46 7 16 12
20 15 12 3 -7 -1 -21 -9 -30z m469 -7 c-9 -7 -15 -15 -12 -19 3 -3 -3 1 -13 9
-14 13 -15 17 -3 24 8 5 21 7 29 3 13 -4 13 -7 -1 -17z m-1139 -78 c-24 -37
-42 -46 -54 -25 -4 7 0 16 11 22 10 6 27 21 39 34 29 32 31 12 4 -31z m916 38
c-4 -8 -8 -15 -10 -15 -2 0 -4 7 -4 15 0 8 4 15 10 15 5 0 7 -7 4 -15z m-43
-56 c-11 -9 -21 -23 -21 -31 0 -7 -7 -24 -16 -36 -19 -28 -39 -30 -24 -3 5 11
10 29 10 40 0 12 7 21 15 21 8 0 15 7 15 15 0 8 7 15 15 15 8 0 15 6 16 13 0
8 2 7 6 -2 3 -8 -4 -22 -16 -32z m1599 27 c0 -3 -4 -8 -10 -11 -5 -3 -10 -1
-10 4 0 6 5 11 10 11 6 0 10 -2 10 -4z m-1790 -10 c0 -3 -4 -8 -10 -11 -5 -3
-10 -1 -10 4 0 6 5 11 10 11 6 0 10 -2 10 -4z m790 -11 c-7 -9 -15 -13 -17
-11 -7 7 7 26 19 26 6 0 6 -6 -2 -15z m-506 -49 c-6 -16 -24 -23 -24 -8 0 10
22 33 27 28 2 -2 1 -11 -3 -20z m121 -6 c4 -7 13 -6 27 1 16 9 19 8 16 -3 -3
-7 -17 -13 -32 -13 -21 0 -31 -7 -40 -30 -7 -17 -15 -25 -19 -18 -8 12 20 73
33 73 5 0 12 -5 15 -10z m1445 -5 c0 -8 -9 -15 -20 -15 -20 0 -26 11 -13 23
12 13 33 7 33 -8z m-1050 -15 c0 -5 -4 -10 -10 -10 -5 0 -10 5 -10 10 0 6 5
10 10 10 6 0 10 -4 10 -10z m-855 -10 c-3 -5 -13 -10 -21 -10 -8 0 -12 5 -9
10 3 6 13 10 21 10 8 0 12 -4 9 -10z m2726 -13 c-10 -9 -11 -8 -5 6 3 10 9 15
12 12 3 -3 0 -11 -7 -18z m-3286 -14 c-3 -40 -4 -43 -15 -43 -5 0 -10 7 -10
15 0 8 5 15 11 15 6 0 8 9 4 20 -3 11 -2 20 3 20 5 0 8 -12 7 -27z m605 9 c0
-13 -28 -47 -34 -42 -10 10 6 50 20 50 8 0 14 -4 14 -8z m-660 -27 c0 -20 -5
-25 -25 -25 -26 0 -26 0 -8 25 23 31 33 31 33 0z m1446 -26 c-13 -29 -15 -30
-16 -11 0 27 22 72 27 56 2 -6 -3 -26 -11 -45z m90 5 c-11 -30 -15 -33 -15
-16 -1 24 17 67 25 59 2 -2 -2 -21 -10 -43z m-931 26 c3 -5 1 -10 -4 -10 -6 0
-11 5 -11 10 0 6 2 10 4 10 3 0 8 -4 11 -10z m170 0 c3 -5 -1 -10 -10 -10 -9
0 -13 5 -10 10 3 6 8 10 10 10 2 0 7 -4 10 -10z m140 0 c3 -5 1 -10 -4 -10 -6
0 -11 5 -11 10 0 6 2 10 4 10 3 0 8 -4 11 -10z m1737 -61 c1 -30 6 -59 11 -66
5 -7 7 -62 3 -125 -7 -158 -25 -208 -71 -208 -29 0 -37 10 -23 27 13 16 10 20
-16 25 -15 2 -19 -3 -20 -24 -2 -36 -23 -58 -32 -35 -8 21 -24 22 -24 2 0 -33
-17 -13 -18 21 -2 43 -9 54 -23 34 -8 -11 -9 -9 -4 10 4 14 9 35 12 48 3 12
12 22 19 22 9 0 14 11 14 30 0 16 4 39 9 52 5 13 15 42 22 66 11 37 16 43 35
39 25 -4 41 28 23 49 -12 14 6 68 20 59 5 -3 12 -1 16 5 3 5 1 10 -4 10 -6 0
-11 5 -11 11 0 6 7 9 15 6 8 -4 17 -1 21 4 13 21 25 -8 26 -62z m-1262 45 c0
-8 -4 -12 -10 -9 -5 3 -10 10 -10 16 0 5 5 9 10 9 6 0 10 -7 10 -16z m-345
-10 c17 -12 18 -16 5 -24 -8 -5 -18 -6 -23 -3 -4 3 -14 -3 -22 -13 -7 -11 -17
-15 -22 -11 -4 5 0 14 10 21 9 7 17 21 17 30 0 20 9 20 35 0z m-468 -29 c-1
-20 -5 -34 -10 -32 -10 3 -10 7 -1 42 9 35 12 31 11 -10z m2543 20 c0 -8 -4
-15 -10 -15 -5 0 -10 7 -10 15 0 8 5 15 10 15 6 0 10 -7 10 -15z m-3107 -25
c-3 -11 -9 -20 -13 -20 -5 0 -11 -8 -14 -18 -4 -10 -13 -19 -20 -19 -9 0 -3
14 17 38 18 21 33 39 34 39 0 0 -1 -9 -4 -20z m757 16 c0 -3 -4 -8 -10 -11 -5
-3 -10 -1 -10 4 0 6 5 11 10 11 6 0 10 -2 10 -4z m-870 -26 c0 -11 -4 -20 -8
-20 -4 0 -8 9 -8 20 0 11 4 20 8 20 4 0 8 -9 8 -20z m42 -11 c-2 -13 -5 -35
-6 -49 -2 -14 -9 -38 -15 -53 -6 -15 -10 -31 -9 -35 1 -8 -10 -38 -43 -107
-20 -41 -25 -46 -27 -27 -5 34 -22 26 -22 -10 -1 -44 -24 -128 -37 -136 -6 -4
-13 -17 -17 -28 -4 -12 -16 -24 -28 -28 -29 -7 -37 2 -16 18 9 7 20 24 23 39
4 15 13 27 21 27 8 0 14 2 14 4 0 2 3 11 6 20 5 13 0 15 -27 10 l-34 -5 33 29
c34 30 42 48 17 38 -10 -3 -7 8 10 35 14 22 23 44 20 49 -3 5 5 30 17 55 22
44 22 48 6 76 -9 16 -13 29 -8 29 25 0 42 -91 20 -105 -5 -3 -10 -14 -9 -23 0
-14 2 -13 9 3 4 12 15 27 24 34 9 8 16 28 16 47 0 19 4 34 8 34 14 0 44 61 38
76 -4 10 -1 14 6 11 7 -2 12 -15 10 -28z m1523 -6 c-8 -16 -14 -49 -13 -74 2
-43 -31 -117 -40 -90 -2 6 3 23 12 36 20 30 21 41 3 26 -29 -23 -25 5 10 71
19 38 37 67 39 65 2 -2 -3 -17 -11 -34z m91 9 c-18 -16 -18 -16 -6 6 6 13 14
21 18 18 3 -4 -2 -14 -12 -24z m-612 -4 c-8 -27 -12 -33 -19 -27 -7 8 7 49 17
49 5 0 6 -10 2 -22z m-447 -10 c-3 -8 -6 -5 -6 6 -1 11 2 17 5 13 3 -3 4 -12
1 -19z m403 1 c0 -5 -4 -9 -10 -9 -5 0 -10 7 -10 16 0 8 5 12 10 9 6 -3 10
-10 10 -16z m506 6 c-3 -8 -22 -41 -43 -72 -33 -51 -38 -55 -41 -35 -2 14 5
33 15 45 11 12 27 34 36 50 18 28 43 38 33 12z m1411 -37 c-3 -7 -5 -2 -5 12
0 14 2 19 5 13 2 -7 2 -19 0 -25z m199 -46 c-12 -11 -16 6 -9 39 l8 34 3 -33
c2 -19 1 -36 -2 -40z m174 58 c0 -5 -2 -10 -4 -10 -3 0 -8 5 -11 10 -3 6 -1
10 4 10 6 0 11 -4 11 -10z m-2180 -21 c0 -5 -6 -6 -14 -3 -19 7 -29 -11 -30
-55 -1 -20 -5 -37 -11 -37 -5 -1 -8 3 -6 10 4 10 5 20 9 82 2 17 7 20 27 16
14 -2 25 -8 25 -13z m-474 -5 c-3 -9 -6 -21 -6 -27 0 -8 -3 -8 -11 0 -13 13
-5 43 12 43 6 0 8 -7 5 -16z m2404 12 c0 -3 -4 -8 -10 -11 -5 -3 -10 -1 -10 4
0 6 5 11 10 11 6 0 10 -2 10 -4z m-2295 -44 c-10 -10 -16 -12 -13 -7 3 6 8 19
13 30 5 14 9 16 12 7 3 -8 -3 -21 -12 -30z m253 26 c17 -17 15 -33 -3 -18 -9
7 -26 9 -45 5 -18 -4 -30 -3 -30 3 0 22 59 29 78 10z m623 -15 c-4 -15 -13
-29 -20 -31 -9 -3 -8 4 3 27 20 38 27 40 17 4z m1456 5 c-3 -8 -6 -5 -6 6 -1
11 2 17 5 13 3 -3 4 -12 1 -19z m108 12 c3 -5 1 -10 -4 -10 -6 0 -11 5 -11 10
0 6 2 10 4 10 3 0 8 -4 11 -10z m169 -26 c8 -29 -1 -64 -14 -64 -5 0 -9 20 -8
45 3 50 12 59 22 19z m-2994 6 c0 -5 -5 -10 -11 -10 -5 0 -7 5 -4 10 3 6 8 10
11 10 2 0 4 -4 4 -10z m610 -19 c0 -6 -4 -13 -10 -16 -5 -3 -10 1 -10 9 0 9 5
16 10 16 6 0 10 -4 10 -9z m1840 -10 c0 -20 -17 -37 -27 -28 -7 8 7 47 18 47
5 0 9 -9 9 -19z m127 -3 c-3 -8 -6 -5 -6 6 -1 11 2 17 5 13 3 -3 4 -12 1 -19z
m48 -22 c-4 -20 -12 -36 -17 -36 -5 0 -6 10 -3 23 4 12 9 30 12 40 9 32 15 11
8 -27z m-2051 15 c3 -5 -1 -14 -8 -21 -8 -6 -18 -25 -21 -41 -4 -16 -11 -29
-16 -29 -11 0 -11 13 0 42 5 13 12 31 15 41 6 18 21 23 30 8z m776 2 c0 -5 -7
-17 -15 -27 -15 -20 -20 -10 -9 18 6 16 24 22 24 9z m-300 -17 c0 -19 -50
-106 -61 -106 -13 0 -11 27 4 42 7 7 20 28 28 46 14 33 29 42 29 18z m169 -41
c-7 -25 -19 -45 -26 -45 -9 0 -10 5 -4 18 5 9 15 32 22 50 17 48 24 31 8 -23z
m164 35 c-3 -12 -8 -19 -11 -16 -5 6 5 36 12 36 2 0 2 -9 -1 -20z m-1427 -6
c-3 -9 -6 -18 -6 -20 0 -3 -4 -3 -10 1 -11 7 -2 35 12 35 6 0 7 -7 4 -16z
m924 -6 c0 -16 -3 -19 -11 -11 -6 6 -8 16 -5 22 11 17 16 13 16 -11z m-649
-15 c-8 -15 -10 -15 -11 -2 0 17 10 32 18 25 2 -3 -1 -13 -7 -23z m229 17 c0
-5 -5 -10 -11 -10 -5 0 -7 5 -4 10 3 6 8 10 11 10 2 0 4 -4 4 -10z m-60 -15
c-7 -8 -10 -21 -7 -29 3 -8 -1 -20 -9 -26 -11 -10 -14 -9 -14 3 0 26 19 67 31
67 8 0 8 -4 -1 -15z m2450 -9 c0 -8 -8 -20 -17 -27 -15 -12 -16 -12 -10 4 4
10 7 25 7 33 0 9 5 12 10 9 6 -3 10 -12 10 -19z m-2177 -16 c-3 -11 -10 -23
-16 -27 -7 -4 -8 0 -4 11 4 10 7 22 7 27 0 5 4 9 9 9 5 0 7 -9 4 -20z m457 1
c0 -24 -20 -32 -37 -15 -17 17 -16 22 5 27 30 8 32 7 32 -12z m186 -18 c-11
-11 -19 6 -11 24 8 17 8 17 12 0 3 -10 2 -21 -1 -24z m585 4 c-10 -9 -11 -8
-5 6 3 10 9 15 12 12 3 -3 0 -11 -7 -18z m612 3 c-3 -11 -7 -20 -9 -20 -2 0
-4 9 -4 20 0 11 4 20 9 20 5 0 7 -9 4 -20z m-2726 -27 c-3 -10 -5 -4 -5 12 0
17 2 24 5 18 2 -7 2 -21 0 -30z m1268 18 c-3 -5 4 -13 16 -16 15 -5 18 -10 10
-18 -6 -6 -11 -22 -11 -35 0 -17 -4 -23 -15 -18 -9 3 -15 0 -15 -10 0 -15 -47
-114 -54 -114 -12 0 3 50 28 92 16 27 28 63 29 87 1 23 5 41 10 41 4 0 6 -4 2
-9z m-1400 -38 c-8 -48 -25 -67 -25 -30 0 24 18 67 29 67 2 0 0 -17 -4 -37z
m2925 22 c0 -8 -4 -15 -10 -15 -5 0 -7 7 -4 15 4 8 8 15 10 15 2 0 4 -7 4 -15z
m510 -26 c0 -22 -4 -38 -8 -35 -8 5 -4 76 4 76 2 0 4 -18 4 -41z m-2455 -18
c-4 -17 -11 -31 -17 -31 -6 0 -7 9 -3 23 4 12 7 30 8 39 1 10 5 14 10 9 5 -5
6 -23 2 -40z m1241 34 c-11 -8 -22 -12 -25 -9 -6 6 19 24 34 24 6 -1 1 -7 -9
-15z m946 -30 c4 -20 3 -23 -8 -14 -15 12 -20 54 -5 45 5 -3 11 -17 13 -31z
m-2533 -15 c-10 -21 -19 -51 -19 -65 0 -15 -6 -25 -14 -25 -12 0 -12 7 -1 44
17 55 33 86 44 86 5 0 1 -18 -10 -40z m689 23 c2 -8 -5 -13 -15 -13 -11 0 -24
-5 -31 -12 -14 -14 -16 -1 -6 27 7 18 45 17 52 -2z m1505 -34 c-6 -6 -7 3 -4
23 4 28 6 29 9 9 2 -13 0 -27 -5 -32z m-2127 13 c-18 -16 -18 -16 -6 6 6 13
14 21 18 18 3 -4 -2 -14 -12 -24z m-486 8 c0 -5 -4 -10 -10 -10 -5 0 -10 5
-10 10 0 6 5 10 10 10 6 0 10 -4 10 -10z m3066 -17 c-10 -10 -19 5 -10 18 6
11 8 11 12 0 2 -7 1 -15 -2 -18z m-339 -15 c-3 -8 -6 -5 -6 6 -1 11 2 17 5 13
3 -3 4 -12 1 -19z m-151 -15 c-10 -10 -19 5 -10 18 6 11 8 11 12 0 2 -7 1 -15
-2 -18z m1965 -32 c23 -72 30 -109 21 -115 -4 -2 -16 26 -26 62 -10 37 -22 78
-27 90 -7 17 -6 23 2 20 7 -2 20 -28 30 -57z m-4644 27 c-3 -8 -6 -5 -6 6 -1
11 2 17 5 13 3 -3 4 -12 1 -19z m385 0 c-7 -7 -12 -8 -12 -2 0 14 12 26 19 19
2 -3 -1 -11 -7 -17z m-552 -3 c1 15 3 16 7 5 3 -8 11 -18 16 -22 7 -4 6 -13
-4 -24 -9 -11 -9 -15 -1 -10 17 10 16 -26 -2 -69 -21 -49 -27 -43 -20 19 4 35
3 56 -5 60 -6 4 -11 19 -10 34 0 24 1 25 9 7 l9 -20 1 20z m1310 -12 c0 -19
-3 -24 -10 -17 -6 6 -8 18 -4 27 9 24 14 21 14 -10z m73 -1 c-6 -24 -23 -30
-23 -9 0 13 21 39 26 34 2 -2 1 -13 -3 -25z m-252 -19 c-9 -16 -10 -14 -11 12
0 21 3 26 11 18 8 -8 8 -16 0 -30z m-1391 -5 c0 -16 -3 -19 -11 -11 -6 6 -8
16 -5 22 11 17 16 13 16 -11z m2215 -81 c-10 -48 -24 -90 -36 -103 -10 -11
-19 -29 -19 -40 0 -12 -7 -21 -15 -21 -8 0 -15 4 -15 9 0 5 -5 6 -12 2 -8 -5
-9 -2 -5 10 4 10 7 22 7 27 0 6 4 8 9 5 4 -3 17 1 27 9 11 8 14 14 7 15 -15 0
-17 46 -3 55 6 3 10 -1 10 -9 0 -9 4 -16 10 -16 5 0 7 6 4 14 -3 7 2 30 10 51
9 21 16 47 16 60 0 24 13 42 18 25 2 -5 -4 -47 -13 -93z m-419 77 c-3 -9 -6
-18 -6 -20 0 -3 -4 -3 -10 1 -11 7 -2 35 12 35 6 0 7 -7 4 -16z m1801 -6 c-3
-8 -6 -5 -6 6 -1 11 2 17 5 13 3 -3 4 -12 1 -19z m320 -40 c-2 -13 -4 -3 -4
22 0 25 2 35 4 23 2 -13 2 -33 0 -45z m-1841 25 c-10 -10 -19 5 -10 18 6 11 8
11 12 0 2 -7 1 -15 -2 -18z m999 9 c-3 -3 -11 0 -18 7 -9 10 -8 11 6 5 10 -3
15 -9 12 -12z m184 -4 c-1 -13 -5 -34 -9 -48 -7 -20 -8 -16 -9 23 -1 26 4 47
9 47 6 0 10 -10 9 -22z m-2852 -20 c-3 -7 -5 -2 -5 12 0 14 2 19 5 13 2 -7 2
-19 0 -25z m2940 -15 c-3 -10 -5 -4 -5 12 0 17 2 24 5 18 2 -7 2 -21 0 -30z
m-3267 18 c0 -6 -5 -13 -10 -16 -6 -4 -8 -10 -6 -14 3 -4 1 -13 -5 -21 -6 -11
-9 -7 -9 16 0 17 3 34 7 37 9 10 23 8 23 -2z m142 -43 c-15 -15 -21 4 -9 32
l10 25 5 -24 c2 -13 -1 -28 -6 -33z m-332 34 c0 -5 -6 -16 -13 -27 -16 -20
-31 -7 -21 19 6 16 34 23 34 8z m1880 -11 c0 -6 -4 -13 -10 -16 -5 -3 -10 1
-10 9 0 9 5 16 10 16 6 0 10 -4 10 -9z m1070 -1 c0 -5 -4 -10 -10 -10 -5 0
-10 5 -10 10 0 6 5 10 10 10 6 0 10 -4 10 -10z m1200 1 c0 -6 -4 -13 -10 -16
-5 -3 -10 1 -10 9 0 9 5 16 10 16 6 0 10 -4 10 -9z m-3170 -11 c0 -5 -4 -10
-10 -10 -5 0 -10 5 -10 10 0 6 5 10 10 10 6 0 10 -4 10 -10z m1232 -12 c-7 -7
-12 -8 -12 -2 0 14 12 26 19 19 2 -3 -1 -11 -7 -17z m-211 -15 c-12 -20 -14
-14 -5 12 4 9 9 14 11 11 3 -2 0 -13 -6 -23z m-1081 13 c0 -2 -8 -10 -17 -17
-16 -13 -17 -12 -4 4 13 16 21 21 21 13z m807 -18 c-3 -8 -6 -5 -6 6 -1 11 2
17 5 13 3 -3 4 -12 1 -19z m2370 -4 c-9 -9 -28 6 -21 18 4 6 10 6 17 -1 6 -6
8 -13 4 -17z m-4191 4 c5 4 -2 -3 -16 -16 -17 -15 -21 -25 -14 -30 16 -10 36
-86 28 -107 -4 -9 -1 -20 5 -25 9 -5 4 -9 -13 -12 -25 -5 -25 -4 -19 39 4 32
2 47 -9 56 -11 9 -14 25 -10 59 3 42 6 46 21 38 10 -5 22 -6 27 -2z m1074 3
c0 -5 -7 -11 -14 -14 -10 -4 -13 -1 -9 9 6 15 23 19 23 5z m972 -13 c-7 -7
-12 -8 -12 -2 0 14 12 26 19 19 2 -3 -1 -11 -7 -17z m-2005 -30 c-3 -7 -5 -2
-5 12 0 14 2 19 5 13 2 -7 2 -19 0 -25z m895 10 c-7 -7 -12 -8 -12 -2 0 14 12
26 19 19 2 -3 -1 -11 -7 -17z m828 -28 c-17 -32 -22 -18 -8 21 8 22 13 28 16
17 2 -9 -2 -27 -8 -38z m72 8 c-8 -8 -9 -4 -5 13 4 13 8 18 11 10 2 -7 -1 -18
-6 -23z m111 2 c-7 -28 -13 -25 -13 6 0 14 4 23 9 20 5 -3 7 -15 4 -26z m2247
14 c0 -8 -5 -12 -10 -9 -6 4 -8 11 -5 16 9 14 15 11 15 -7z m-3209 -11 c2 -32
-2 -48 -18 -63 -14 -13 -15 -12 -9 14 l7 29 -27 -18 c-29 -19 -25 -4 10 32 26
27 36 28 37 6z m919 2 c0 -19 -36 -91 -49 -99 -5 -3 -12 -21 -15 -41 -4 -19
-11 -37 -16 -40 -16 -10 -11 17 14 70 12 28 28 67 35 88 13 37 31 50 31 22z
m3412 -58 c-10 -21 -22 13 -15 44 l7 34 6 -35 c3 -19 4 -39 2 -43z m-4962 53
c0 -5 -4 -10 -10 -10 -5 0 -10 5 -10 10 0 6 5 10 10 10 6 0 10 -4 10 -10z
m1944 -5 c-4 -8 -8 -15 -10 -15 -2 0 -4 7 -4 15 0 8 4 15 10 15 5 0 7 -7 4
-15z m3110 -30 c4 -24 11 -47 17 -50 14 -9 11 -37 -3 -32 -7 2 -12 9 -11 15 2
6 -4 27 -12 46 -17 40 -19 66 -6 66 5 0 12 -20 15 -45z m-5154 25 c0 -5 -5
-10 -11 -10 -5 0 -7 5 -4 10 3 6 8 10 11 10 2 0 4 -4 4 -10z m5116 -51 c13
-43 4 -52 -14 -16 -11 21 -13 72 -3 61 3 -3 11 -23 17 -45z m-5232 10 c-8 -13
-24 -1 -24 18 0 13 3 13 15 3 8 -7 12 -16 9 -21z m4046 16 c0 -1 -5 -17 -11
-34 -14 -41 -34 -26 -24 17 4 21 11 29 21 25 8 -3 14 -6 14 -8z m133 -13 c-3
-12 -9 -19 -14 -16 -5 3 -4 14 2 25 13 26 20 21 12 -9z m-2321 -4 c-7 -7 -12
-8 -12 -2 0 14 12 26 19 19 2 -3 -1 -11 -7 -17z m1535 -20 c-3 -8 -6 -5 -6 6
-1 11 2 17 5 13 3 -3 4 -12 1 -19z m-1244 -36 c-3 -12 -10 -22 -15 -22 -6 0
-8 10 -4 23 3 12 6 29 6 37 1 13 2 13 10 -1 5 -8 6 -25 3 -37z m617 37 c0 -5
-4 -8 -9 -4 -5 3 -12 1 -16 -5 -3 -5 3 -10 14 -10 14 0 19 -5 15 -15 -8 -19
22 -31 40 -16 18 15 46 0 69 -38 13 -20 17 -22 17 -8 0 9 5 17 10 17 6 0 10
-9 10 -20 0 -12 -7 -20 -16 -20 -26 0 -11 -35 16 -38 14 -2 30 -8 36 -13 8 -6
13 -3 17 11 9 34 27 23 21 -12 -5 -31 -5 -32 10 -14 14 17 16 17 16 3 0 -15
-29 -86 -40 -97 -3 -3 -10 -15 -17 -27 -10 -17 -9 -24 2 -33 24 -20 28 -50 9
-65 -16 -11 -17 -16 -6 -40 20 -43 0 -46 -96 -13 -52 18 -97 28 -113 24 -20
-4 -28 -1 -32 13 -3 13 -18 21 -46 26 -23 4 -65 16 -94 27 -28 11 -67 23 -85
25 -19 3 -36 12 -39 19 -3 8 -15 14 -27 15 -16 1 -14 3 9 10 17 5 36 7 43 4
14 -5 17 11 2 20 -24 15 31 86 61 78 16 -5 19 0 19 27 0 24 4 31 15 26 17 -6
21 9 5 19 -5 3 -10 15 -10 26 0 16 4 19 21 14 19 -6 21 -4 15 19 -4 15 -2 26
4 26 5 0 10 7 10 15 0 8 2 15 4 15 2 0 13 3 23 7 14 5 16 4 7 -8 -6 -8 -12
-31 -12 -52 -1 -21 -4 -43 -8 -49 -4 -6 -1 -9 7 -6 8 3 17 21 20 42 6 40 15
51 51 71 29 16 48 18 48 4z m-1900 -15 c0 -8 -5 -12 -10 -9 -6 4 -8 11 -5 16
9 14 15 11 15 -7z m924 -11 c-8 -33 -44 -83 -44 -61 0 8 7 23 15 34 8 10 15
27 15 37 0 9 5 17 10 17 6 0 8 -11 4 -27z m2065 -32 c1 -35 -5 -22 -12 24 -5
28 -4 34 3 20 5 -11 9 -31 9 -44z m-3055 24 c-4 -8 -8 -15 -10 -15 -2 0 -4 7
-4 15 0 8 4 15 10 15 5 0 7 -7 4 -15z m1482 -46 c-12 -28 -15 -30 -15 -12 -1
29 23 83 27 61 2 -9 -4 -31 -12 -49z m2915 38 c-1 -12 -15 -9 -19 4 -3 6 1 10
8 8 6 -3 11 -8 11 -12z m-1141 -17 c0 -5 -4 -10 -10 -10 -5 0 -10 5 -10 10 0
6 5 10 10 10 6 0 10 -4 10 -10z m100 -49 c0 -32 -6 -24 -14 19 -4 25 -3 31 4
20 5 -8 10 -26 10 -39z m-3399 6 c-8 -8 -11 -7 -11 4 0 20 13 34 18 19 3 -7
-1 -17 -7 -23z m1438 26 c0 -5 -4 -17 -9 -28 -8 -18 -9 -17 -9 8 -1 15 4 27 9
27 6 0 10 -3 9 -7z m2028 -25 c-3 -8 -6 -5 -6 6 -1 11 2 17 5 13 3 -3 4 -12 1
-19z m-4400 -20 c-3 -8 -6 -5 -6 6 -1 11 2 17 5 13 3 -3 4 -12 1 -19z m1039
-5 c-10 -10 -19 5 -10 18 6 11 8 11 12 0 2 -7 1 -15 -2 -18z m-996 -7 c0 -14
-4 -28 -10 -31 -6 -4 -10 7 -10 24 0 17 5 31 10 31 6 0 10 -11 10 -24z m3802
-8 c-7 -7 -12 -8 -12 -2 0 14 12 26 19 19 2 -3 -1 -11 -7 -17z m401 -1 c4 3 7
-1 7 -10 0 -9 -7 -17 -15 -17 -8 0 -15 2 -15 4 0 2 -3 13 -7 23 -6 15 -4 16 9
6 8 -7 18 -10 21 -6z m-1883 -9 c0 -7 -5 -20 -10 -28 -8 -12 -10 -9 -10 13 0
15 5 27 10 27 6 0 10 -6 10 -12z m-63 -45 c-3 -10 -5 -4 -5 12 0 17 2 24 5 18
2 -7 2 -21 0 -30z m223 18 c0 -11 -4 -23 -10 -26 -6 -4 -10 5 -10 19 0 14 5
26 10 26 6 0 10 -9 10 -19z m-1562 -17 c-7 -15 -14 -21 -16 -15 -2 7 2 18 8
26 18 22 21 18 8 -11z m865 -6 c-3 -18 -10 -37 -14 -42 -5 -6 -9 -18 -9 -27 0
-10 -5 -21 -11 -25 -14 -8 -3 48 19 93 20 41 23 41 15 1z m84 10 c-3 -8 -6 -5
-6 6 -1 11 2 17 5 13 3 -3 4 -12 1 -19z m3477 -20 c-1 -18 -2 -46 -3 -61 -1
-17 -5 -26 -11 -22 -6 4 -8 16 -5 26 4 11 2 26 -5 34 -7 9 -8 15 0 20 5 3 10
15 10 26 0 11 3 18 8 16 4 -3 6 -20 6 -39z m45 -27 c14 -43 5 -81 -20 -81 -23
0 -25 15 -4 24 17 6 20 42 5 51 -5 3 -10 18 -10 33 0 32 13 20 29 -27z m31 23
c0 -8 -4 -14 -10 -14 -5 0 -10 9 -10 21 0 11 5 17 10 14 6 -3 10 -13 10 -21z
m-1258 -6 c-7 -7 -12 -8 -12 -2 0 14 12 26 19 19 2 -3 -1 -11 -7 -17z m39 -31
c-13 -13 -15 1 -4 30 7 17 8 17 11 -1 2 -10 -1 -23 -7 -29z m146 11 c-3 -7 -5
-2 -5 12 0 14 2 19 5 13 2 -7 2 -19 0 -25z m1117 0 c15 -33 16 -61 3 -74 -4
-4 -7 0 -7 9 0 9 -10 22 -22 28 -14 8 -18 14 -10 17 6 2 12 15 12 28 0 32 6
30 24 -8z m-3504 12 c21 -7 19 -8 -17 -9 -24 -1 -43 4 -43 9 0 12 24 12 60 0z
m365 -40 c-4 -23 -9 -39 -12 -36 -3 2 -2 23 2 46 4 23 9 39 12 36 3 -2 2 -23
-2 -46z m2954 0 c1 -13 0 -13 -9 0 -5 8 -9 24 -9 35 l0 20 9 -20 c5 -11 9 -27
9 -35z m-3042 8 c-3 -7 -5 -2 -5 12 0 14 2 19 5 13 2 -7 2 -19 0 -25z m363 0
c0 -16 -3 -19 -11 -11 -6 6 -8 16 -5 22 11 17 16 13 16 -11z m-1790 -8 c0 -5
-4 -10 -10 -10 -5 0 -10 5 -10 10 0 6 5 10 10 10 6 0 10 -4 10 -10z m998 -17
c1 -22 -18 -63 -30 -63 -7 0 -4 30 8 68 5 18 21 15 22 -5z m3642 -51 c2 -61 6
-96 12 -112 4 -8 9 -22 11 -30 3 -8 4 22 3 68 -3 84 8 99 20 27 9 -54 5 -119
-6 -123 -6 -2 -7 -14 -4 -27 3 -12 1 -26 -5 -29 -6 -4 -11 -17 -12 -29 l0 -22
-9 23 c-5 12 -14 22 -20 22 -15 0 -8 42 8 48 6 2 12 -5 13 -15 0 -10 3 -12 6
-6 2 7 -3 23 -11 35 -9 12 -16 31 -16 41 0 9 -7 20 -15 23 -8 4 -15 16 -14 28
0 20 1 20 9 1 7 -17 9 -15 9 13 1 17 -2 31 -6 30 -5 -2 -8 2 -8 7 0 6 3 9 6 8
4 -1 5 6 2 17 -7 25 4 53 16 45 5 -3 10 -22 11 -43z m-4703 -4 c-3 -8 -6 -5
-6 6 -1 11 2 17 5 13 3 -3 4 -12 1 -19z m3300 -10 c-3 -8 -6 -5 -6 6 -1 11 2
17 5 13 3 -3 4 -12 1 -19z m1343 -37 c0 -11 -5 -10 -20 4 -11 10 -20 28 -20
39 0 20 1 20 20 -4 11 -14 20 -31 20 -39z m-3514 12 c-11 -11 -19 6 -11 24 8
17 8 17 12 0 3 -10 2 -21 -1 -24z m2150 -11 c-11 -10 -15 4 -8 28 l7 25 3 -23
c2 -13 1 -26 -2 -30z m1319 -1 c5 -21 4 -31 -3 -27 -5 3 -12 22 -14 41 -5 43
7 33 17 -14z m-2098 -42 c-5 -4 -10 -20 -11 -37 -1 -17 -4 -33 -8 -37 -12 -12
4 -43 25 -50 12 -3 17 -9 10 -11 -14 -6 -94 31 -122 57 -20 19 -21 46 0 34 11
-7 39 18 39 34 0 6 15 24 33 40 l32 30 5 -27 c3 -15 2 -30 -3 -33z m-1503 -30
c-17 -54 -34 -77 -34 -46 0 16 27 104 36 119 17 27 16 -18 -2 -73z m35 -3 c-9
-8 -10 -7 -5 7 3 10 7 28 7 40 2 16 3 14 6 -7 3 -16 -1 -34 -8 -40z m-2189 44
c0 -5 -4 -10 -10 -10 -5 0 -10 5 -10 10 0 6 5 10 10 10 6 0 10 -4 10 -10z
m2410 -21 c0 -6 -7 -9 -15 -6 -8 4 -17 2 -20 -3 -4 -6 -11 -10 -18 -10 -15 0
25 29 41 30 6 0 12 -5 12 -11z m1919 -69 c-8 -7 -21 -74 -24 -126 -2 -23 -6
-52 -10 -64 -5 -17 -4 -21 5 -15 10 6 12 -1 7 -31 -4 -21 -7 -50 -8 -64 0 -23
-1 -23 -9 -5 -7 18 -8 18 -15 -8 -5 -17 -3 -33 5 -43 10 -11 10 -18 2 -26 -7
-7 -12 -23 -12 -36 0 -13 -4 -21 -9 -18 -4 3 -39 8 -77 11 -89 8 -101 11 -149
49 -52 40 -205 193 -205 205 0 5 11 16 23 24 22 14 69 61 129 127 28 31 42 27
50 -15 2 -11 11 -21 22 -23 14 -3 17 0 11 17 -3 11 -3 26 1 32 10 16 24 -9 24
-43 0 -32 6 -34 32 -12 16 16 18 16 24 0 10 -26 53 -19 86 14 16 17 33 28 37
25 5 -2 14 15 21 38 20 62 22 63 34 26 7 -19 9 -36 5 -39z m88 33 c-16 -16
-17 -16 -17 3 0 11 3 24 7 27 4 4 11 3 17 -3 7 -7 5 -16 -7 -27z m1140 5 c-3
-8 -6 -5 -6 6 -1 11 2 17 5 13 3 -3 4 -12 1 -19z m-5591 -25 c-10 -10 -19 5
-10 18 6 11 8 11 12 0 2 -7 1 -15 -2 -18z m5819 -70 c4 -32 3 -53 -3 -53 -5 0
-12 19 -15 43 -4 23 -9 58 -12 77 -6 35 -6 35 8 10 8 -14 18 -49 22 -77z m55
76 c0 -14 -17 -10 -23 5 -4 10 -1 13 9 9 7 -3 14 -9 14 -14z m-4710 -13 c0 -3
-4 -8 -10 -11 -5 -3 -10 -1 -10 4 0 6 5 11 10 11 6 0 10 -2 10 -4z m2040 -26
c14 -5 61 -18 106 -29 120 -29 337 -118 420 -172 40 -26 101 -76 137 -111 78
-76 97 -127 97 -254 0 -99 -35 -215 -110 -365 -34 -67 -47 -104 -43 -120 5
-18 3 -21 -10 -16 -13 5 -17 1 -17 -16 -1 -26 -29 -69 -31 -46 -1 8 -4 1 -8
-16 -4 -17 -13 -29 -20 -27 -8 2 -11 -3 -8 -12 3 -8 -5 -29 -19 -47 -13 -18
-24 -27 -24 -20 0 7 -4 10 -10 6 -5 -3 -7 -12 -3 -20 4 -11 1 -13 -10 -9 -12
4 -18 -2 -23 -20 -3 -14 -10 -24 -14 -21 -4 3 -13 -2 -20 -10 -10 -12 -10 -15
1 -15 7 0 3 -10 -11 -25 -13 -14 -29 -25 -37 -25 -7 0 -13 -7 -13 -15 0 -9
-12 -20 -26 -25 -14 -6 -22 -14 -19 -20 3 -5 0 -10 -7 -10 -7 0 -26 -7 -42
-15 -65 -34 -136 -47 -260 -46 -207 0 -456 45 -566 101 -103 52 -174 165 -175
276 0 34 6 72 12 85 7 13 19 51 27 84 8 33 23 94 34 135 12 41 23 88 27 103 3
15 9 25 14 23 5 -3 12 22 15 56 4 33 13 67 20 74 8 7 19 47 25 89 11 72 26
105 50 105 6 0 11 -7 11 -15 0 -10 10 -15 28 -15 36 0 49 10 54 40 2 19 8 24
26 23 18 -2 22 2 22 23 0 18 5 24 17 22 10 -2 19 4 21 15 3 13 -2 16 -20 15
-20 -3 -23 1 -20 31 1 19 16 76 34 128 32 96 32 118 0 90 -13 -12 -17 -26 -14
-47 5 -36 -22 -83 -46 -78 -9 2 -27 -7 -39 -21 l-23 -24 0 36 c0 20 -4 39 -10
42 -5 3 -10 18 -9 33 l1 27 8 -25 c9 -29 10 -28 15 25 3 27 1 35 -5 25 -11
-18 -25 -6 -16 15 4 11 13 14 25 10 11 -3 22 -1 26 5 4 6 15 8 25 5 9 -3 29
-1 43 4 18 7 28 7 33 0 4 -7 10 -6 19 1 10 8 24 8 51 1 20 -6 41 -8 46 -5 5 3
15 1 23 -6 10 -8 19 -8 34 -1 11 6 27 8 35 5 9 -3 16 -1 16 5 0 6 -8 11 -17
11 -14 0 -15 2 -5 9 14 8 111 -3 152 -19z m880 20 c0 -5 -2 -10 -4 -10 -3 0
-8 5 -11 10 -3 6 -1 10 4 10 6 0 11 -4 11 -10z m352 -32 c-10 -22 -11 -21 -11
12 -1 26 2 31 11 22 8 -8 8 -17 0 -34z m1045 10 c-3 -7 -5 -2 -5 12 0 14 2 19
5 13 2 -7 2 -19 0 -25z m-5527 2 c0 -11 -7 -20 -15 -20 -8 0 -15 9 -15 20 0
11 7 20 15 20 8 0 15 -9 15 -20z m2264 3 c-19 -40 -12 -527 11 -713 18 -146
30 -230 57 -370 16 -91 33 -178 35 -195 3 -16 9 -35 14 -41 11 -13 0 -76 -12
-69 -4 3 -13 -14 -20 -37 l-11 -43 -18 23 c-10 12 -20 18 -22 13 -1 -4 -12 -5
-23 0 -17 6 -17 8 -2 8 23 1 22 27 -2 34 -16 4 -20 13 -19 46 0 46 -5 57 -22
46 -13 -8 -4 -83 11 -100 13 -14 12 -92 -2 -78 -15 15 -22 89 -23 236 0 123
-7 151 -26 105 -10 -27 -13 -14 -4 20 4 13 12 21 19 18 8 -3 17 3 21 12 19 43
41 379 23 349 -6 -10 -15 -62 -20 -115 -10 -116 -19 -162 -30 -162 -5 0 -9 -7
-9 -15 0 -8 -7 -15 -16 -15 -13 0 -15 15 -12 99 3 105 -3 127 -27 95 -13 -16
-14 -16 -9 -1 3 9 1 23 -5 31 -9 11 -8 15 5 20 10 4 14 14 11 25 -2 10 0 25 5
34 6 12 3 20 -12 29 -25 16 -26 32 -1 18 25 -13 34 8 14 32 -9 10 -11 18 -4
22 6 4 16 -2 23 -14 16 -25 24 -25 31 0 3 11 1 20 -4 20 -5 0 -6 20 -2 45 5
38 3 45 -11 45 -13 0 -16 5 -11 22 6 17 4 20 -9 15 -14 -6 -16 -2 -10 28 6 34
-8 50 -20 23 -3 -7 -4 -2 -3 12 1 17 7 24 18 22 10 -1 19 6 22 17 7 27 -15 33
-28 8 -5 -11 -14 -20 -20 -21 -15 -1 -45 -29 -45 -41 0 -17 -24 -65 -32 -65
-14 0 -8 19 24 85 20 43 34 61 39 53 6 -10 9 -9 13 2 25 80 7 102 -26 31 -26
-57 -44 -61 -41 -10 l2 34 -11 -30 c-14 -39 -49 -78 -61 -66 -5 5 -2 24 7 46
9 21 16 48 16 61 0 13 5 24 10 24 6 0 10 23 10 51 0 31 4 48 10 44 6 -4 10 5
10 20 0 20 4 26 15 21 10 -4 18 6 25 36 17 61 31 78 65 78 17 0 37 6 45 13 8
7 7 2 -3 -15 -9 -15 -17 -40 -17 -55 l1 -28 13 30 c7 17 25 43 40 58 14 15 26
35 26 43 0 7 5 14 11 14 7 0 8 -6 3 -17z m2263 -5 c-3 -8 -6 -5 -6 6 -1 11 2
17 5 13 3 -3 4 -12 1 -19z m-2207 -3 c0 -8 -4 -15 -10 -15 -5 0 -7 7 -4 15 4
8 8 15 10 15 2 0 4 -7 4 -15z m-1138 -27 c-8 -8 -9 -4 -5 13 4 13 8 18 11 10
2 -7 -1 -18 -6 -23z m3280 -10 c4 -24 -10 -79 -22 -88 -3 -3 -9 -13 -13 -22
-13 -36 -29 -19 -23 25 17 126 17 127 36 117 10 -6 20 -20 22 -32z m-1767 -28
c-12 -39 -14 -40 -9 -10 8 49 16 77 21 65 2 -6 -4 -30 -12 -55z m3314 -1 c10
-23 10 -34 2 -42 -6 -6 -11 -8 -11 -4 0 15 -3 23 -16 42 -17 24 -18 35 -1 35
6 0 18 -14 26 -31z m-6009 -8 c0 -6 -4 -13 -10 -16 -5 -3 -10 1 -10 9 0 9 5
16 10 16 6 0 10 -4 10 -9z m2281 -22 c-9 -22 -10 -22 -10 -3 -1 11 2 24 6 27
12 12 14 0 4 -24z m-331 17 c0 -3 -4 -8 -10 -11 -5 -3 -10 -1 -10 4 0 6 5 11
10 11 6 0 10 -2 10 -4z m3580 -6 c0 -5 -5 -10 -11 -10 -5 0 -7 5 -4 10 3 6 8
10 11 10 2 0 4 -4 4 -10z m-3143 -42 c-3 -8 -6 -5 -6 6 -1 11 2 17 5 13 3 -3
4 -12 1 -19z m3570 -15 c-3 -10 -5 -4 -5 12 0 17 2 24 5 18 2 -7 2 -21 0 -30z
m-3283 -30 c-9 -50 -31 -103 -42 -103 -5 0 0 31 12 70 22 74 41 95 30 33z m56
23 c0 -8 -4 -18 -10 -21 -5 -3 -10 3 -10 14 0 12 5 21 10 21 6 0 10 -6 10 -14z
m3157 -8 c-3 -8 -6 -5 -6 6 -1 11 2 17 5 13 3 -3 4 -12 1 -19z m-3528 -32
c-29 -49 -36 -46 -8 4 12 22 24 38 26 36 2 -2 -6 -20 -18 -40z m3645 17 c-6
-2 -8 -19 -6 -38 2 -19 0 -35 -6 -35 -13 0 -24 44 -15 67 9 24 27 36 32 21 2
-7 0 -13 -5 -15z m-3497 -30 c-3 -10 -5 -4 -5 12 0 17 2 24 5 18 2 -7 2 -21 0
-30z m54 -23 c-25 -51 -18 -85 11 -49 18 24 19 24 33 5 8 -11 12 -29 9 -39 -4
-13 -2 -17 5 -13 14 9 14 4 0 -31 -7 -15 -13 -37 -14 -48 -5 -54 -29 -151 -39
-157 -6 -4 -12 -20 -13 -35 -1 -15 -5 -45 -9 -65 -4 -28 -3 -38 7 -38 10 0 10
-3 1 -12 -7 -7 -12 -26 -13 -42 0 -26 -2 -28 -9 -11 -5 12 -6 -5 -4 -45 3 -46
1 -58 -5 -40 -7 21 -9 15 -11 -30 -1 -30 -6 -64 -11 -75 -7 -15 -8 -9 -5 23 2
23 0 42 -5 42 -9 0 -12 -23 -10 -100 1 -25 -3 -52 -9 -60 -9 -11 -10 -7 -5 18
4 20 2 38 -5 48 -18 20 -7 504 14 639 9 55 16 101 16 103 0 2 4 1 10 -3 5 -3
7 -12 3 -20 -12 -32 8 -13 28 28 36 69 64 77 30 7z m2377 12 c2 -7 -3 -12 -12
-12 -9 0 -16 7 -16 16 0 17 22 14 28 -4z m42 -41 c29 -6 31 -8 15 -14 -11 -4
-42 -7 -70 -8 -27 0 -63 -5 -80 -9 -60 -17 -125 -22 -125 -10 0 7 8 9 20 5 15
-5 20 -2 20 12 0 14 2 15 9 4 6 -10 13 -11 29 -2 11 6 35 11 52 11 19 0 33 6
37 16 4 11 13 14 32 8 14 -4 42 -10 61 -13z m-2245 -31 c3 -5 1 -10 -4 -10 -6
0 -11 5 -11 10 0 6 2 10 4 10 3 0 8 -4 11 -10z m3290 1 c3 -5 1 -12 -5 -16 -5
-3 -10 1 -10 9 0 18 6 21 15 7z m-1325 -21 c0 -5 -5 -10 -11 -10 -5 0 -7 5 -4
10 3 6 8 10 11 10 2 0 4 -4 4 -10z m1210 -26 c0 -14 -4 -23 -10 -19 -5 3 -10
15 -10 26 0 10 5 19 10 19 6 0 10 -12 10 -26z m-3190 -34 c0 -5 -5 -10 -11
-10 -5 0 -7 5 -4 10 3 6 8 10 11 10 2 0 4 -4 4 -10z m-363 -15 c9 -25 -4 -29
-17 -6 -7 15 -7 21 0 21 6 0 13 -7 17 -15z m3552 -50 c-1 -29 2 -58 5 -64 4
-6 3 -11 -2 -11 -6 0 -13 24 -17 53 -3 28 -9 60 -11 69 -4 13 -1 16 10 12 12
-5 16 -20 15 -59z m-979 26 c0 -6 -5 -13 -10 -16 -6 -4 -8 -9 -6 -13 2 -4 -2
-16 -10 -27 -14 -19 -15 -19 -10 8 4 22 1 27 -15 27 -10 0 -18 -3 -18 -7 5
-33 -1 -41 -26 -30 -14 7 -25 15 -25 20 0 4 -17 7 -37 8 -36 0 -36 1 -13 10
23 9 108 25 153 28 9 0 17 -3 17 -8z m97 -4 c-1 -5 -6 -8 -10 -8 -4 1 -16 1
-27 1 -11 0 -20 4 -20 9 0 4 13 8 30 7 16 -1 29 -5 27 -9z m-940 -49 c-3 -7
-5 -2 -5 12 0 14 2 19 5 13 2 -7 2 -19 0 -25z m731 -31 c7 -9 18 -15 23 -12 5
4 9 4 9 1 0 -2 3 -13 6 -23 4 -14 4 -15 -4 -4 -8 11 -12 10 -21 -7 -10 -18
-17 -20 -61 -15 -34 4 -50 2 -50 -6 0 -18 -20 -12 -20 7 -1 15 -2 15 -15 -3
-9 -11 -29 -20 -48 -21 -17 -1 -40 -5 -49 -9 -15 -6 -18 -2 -19 21 -1 29 -1
29 -8 4 -4 -14 -11 -25 -16 -25 -38 -2 -60 -21 -56 -47 0 -5 -6 -8 -14 -8 -18
0 -20 -17 -4 -22 8 -3 6 -14 -6 -37 -17 -35 -10 -50 23 -51 20 0 14 -14 -10
-25 -19 -8 -22 -16 -20 -45 2 -19 12 -41 22 -50 10 -8 28 -23 39 -32 13 -12
38 -18 67 -18 37 0 51 5 78 33 18 17 41 46 50 64 19 37 21 111 4 148 -6 14 -9
27 -6 30 8 8 92 -32 111 -52 23 -27 31 -92 16 -143 -7 -25 -13 -59 -14 -77 -2
-43 -21 -63 -59 -64 -47 -2 -83 -13 -68 -23 6 -4 16 -5 21 -2 5 3 20 0 33 -7
20 -10 23 -15 12 -25 -7 -7 -17 -12 -22 -12 -5 0 -14 -11 -20 -24 -8 -19 -8
-27 2 -35 16 -13 76 13 76 34 0 7 7 15 15 19 8 3 15 13 15 22 0 24 24 11 28
-15 3 -16 9 -22 21 -18 15 4 18 -6 19 -79 1 -46 -2 -84 -6 -84 -5 0 -7 -55 -5
-122 2 -76 -1 -124 -8 -128 -5 -4 -11 -34 -12 -68 -1 -34 -5 -62 -10 -62 -5 0
-6 -7 -3 -16 4 -10 -1 -25 -9 -34 -11 -12 -13 -20 -5 -25 5 -3 8 -10 5 -15
-10 -16 21 -28 80 -31 73 -4 145 24 144 56 0 11 -3 14 -6 8 -2 -7 -9 -13 -14
-13 -22 0 -4 25 64 93 69 67 97 101 156 187 30 43 151 294 151 313 0 7 4 17 9
23 23 25 93 268 106 367 3 26 10 47 16 47 5 0 9 -21 10 -47 1 -39 2 -43 9 -23
4 14 9 18 10 10 1 -10 5 -8 12 8 19 39 30 25 23 -28 -4 -27 -4 -50 -1 -50 11
0 30 86 27 123 -2 23 2 37 9 37 8 0 10 -20 7 -67 -6 -90 -12 -119 -36 -176
-12 -27 -21 -56 -21 -66 0 -9 -11 -32 -24 -51 -24 -35 -56 -118 -56 -144 0 -8
-7 -19 -15 -26 -8 -7 -12 -16 -9 -21 3 -5 -4 -22 -16 -37 -37 -47 -140 -226
-140 -244 0 -10 -4 -18 -10 -18 -5 0 -23 -28 -40 -62 -17 -35 -38 -70 -46 -79
-8 -8 -14 -23 -14 -33 0 -9 -12 -22 -27 -29 -16 -7 -39 -20 -53 -29 -14 -9
-54 -26 -90 -38 -57 -20 -78 -22 -174 -16 -210 13 -328 49 -414 130 -58 54
-80 51 -60 -10 8 -24 25 -46 45 -59 37 -23 43 -40 11 -29 -41 13 -50 9 -70
-24 -19 -34 -17 -52 6 -52 17 0 183 -47 211 -59 11 -5 27 -12 35 -15 34 -15
62 -35 94 -68 31 -32 34 -40 31 -80 -5 -49 -34 -124 -69 -178 -44 -68 -60 -95
-61 -102 0 -10 -16 -23 -28 -23 -7 0 -13 -9 -15 -19 -2 -11 -10 -26 -18 -34
-8 -7 -14 -20 -14 -27 0 -9 -6 -12 -15 -9 -11 5 -15 -1 -15 -19 0 -39 -9 -55
-30 -50 -18 5 -37 -27 -26 -45 3 -5 -6 -19 -19 -30 -14 -12 -25 -29 -25 -37 0
-17 -40 -96 -53 -106 -9 -7 -28 -37 -49 -79 -17 -35 -18 -36 -28 -20 -8 13
-10 12 -10 -3 0 -10 -11 -29 -24 -41 -12 -13 -26 -32 -30 -41 -3 -9 -15 -19
-26 -22 -11 -3 -20 -11 -20 -19 0 -7 -6 -17 -13 -21 -7 -4 -23 -25 -37 -45
-14 -21 -31 -38 -38 -38 -7 0 -15 -14 -19 -30 -4 -25 -9 -29 -26 -24 -13 4
-17 2 -13 -5 4 -6 3 -11 -3 -11 -5 0 -12 -8 -15 -18 -3 -10 -22 -34 -42 -55
-37 -38 -72 -90 -108 -161 -11 -20 -33 -46 -48 -57 -16 -12 -25 -25 -22 -31 4
-6 2 -8 -3 -5 -6 4 -19 -3 -29 -14 -20 -22 -85 -53 -133 -64 -17 -4 -31 -11
-31 -16 0 -10 -91 -5 -109 5 -7 5 -11 -1 -11 -13 0 -12 -7 -21 -15 -21 -8 0
-15 5 -15 10 0 6 -16 10 -35 10 -19 0 -35 5 -35 10 0 6 -5 10 -11 10 -6 0 -8
-7 -5 -16 5 -12 -2 -15 -37 -12 -28 2 -42 8 -42 17 0 11 -13 15 -52 14 -36 0
-50 4 -47 12 3 8 -5 10 -25 7 -22 -3 -33 0 -37 12 -3 9 -12 16 -19 16 -7 0
-24 9 -38 20 -14 11 -32 20 -41 20 -9 0 -16 6 -17 13 0 10 -2 10 -6 0 -6 -17
-21 -16 -39 2 -9 8 -26 16 -40 16 -45 3 -49 4 -50 17 -3 25 -4 27 -13 13 -5
-8 -16 -11 -30 -6 -12 3 -19 11 -16 16 4 5 -4 9 -17 9 -24 0 -82 33 -73 41 2
3 -12 14 -33 24 -20 11 -40 25 -45 32 -4 7 -14 10 -22 7 -10 -4 -15 0 -15 11
0 11 -5 15 -15 11 -10 -3 -17 3 -21 19 -9 35 -40 61 -57 46 -11 -9 -17 -8 -27
4 -7 8 -19 15 -26 15 -8 0 -23 9 -34 20 -11 11 -32 20 -48 20 -17 0 -34 9 -46
25 -10 14 -29 25 -41 25 -23 0 -49 36 -43 59 2 8 -2 15 -9 18 -6 2 -13 -6 -15
-19 -4 -22 -5 -22 -13 -3 -4 11 -19 35 -32 53 -20 26 -28 31 -39 21 -15 -12
-19 -6 -27 41 -3 19 -5 17 -6 -10 -1 -30 -3 -32 -12 -17 -6 10 -8 25 -5 34 4
11 2 14 -9 10 -18 -8 -24 2 -41 71 -21 84 -28 243 -14 320 13 71 52 194 76
240 7 15 14 34 14 43 0 27 31 93 47 103 13 7 13 10 2 17 -11 6 -9 15 8 46 11
21 35 81 52 133 17 52 35 104 40 115 4 11 16 37 25 58 9 21 16 44 16 51 0 21
44 39 78 31 16 -3 33 -2 36 3 3 5 27 7 53 5 26 -2 64 -3 83 -2 127 4 240 -1
450 -20 52 -5 101 -6 108 -4 6 3 12 1 12 -4 0 -12 58 -15 65 -3 7 11 116 1
132 -12 8 -6 15 -2 23 12 l11 21 19 -23 20 -23 -11 33 c-18 53 -6 73 68 116
74 43 303 265 303 293 0 10 6 13 16 9 8 -3 12 -2 9 4 -3 5 3 20 14 32 12 12
21 27 21 34 0 7 6 17 13 21 12 8 43 66 143 264 30 59 61 109 70 113 38 15 97
0 137 -33 18 -15 18 -12 11 72 l-7 87 27 0 c30 0 32 -11 10 -46 -20 -29 -9
-48 11 -20 13 17 14 17 21 -8 4 -17 -2 -48 -16 -86 -28 -74 -24 -93 35 -217
25 -51 45 -97 45 -102 0 -5 7 -14 15 -21 13 -11 15 -5 16 46 0 33 2 70 5 84 2
14 8 59 14 100 26 192 56 277 125 351 47 51 73 67 142 89 53 16 60 16 103 1
25 -9 51 -24 58 -34z m-539 -9 c0 -13 -4 -32 -9 -43 -6 -15 -8 -9 -7 23 1 23
5 42 9 42 4 0 8 -10 7 -22z m-1649 -25 c0 -10 -4 -14 -8 -8 -4 6 -11 13 -16
18 -5 4 -2 7 7 7 10 0 17 -8 17 -17z m1447 -30 c-3 -10 -5 -2 -5 17 0 19 2 27
5 18 2 -10 2 -26 0 -35z m-1937 28 c0 -6 -4 -13 -10 -16 -5 -3 -10 1 -10 9 0
9 5 16 10 16 6 0 10 -4 10 -9z m-46 -45 c-3 -14 -11 -26 -16 -26 -5 0 -7 6 -4
13 3 6 9 20 12 30 10 27 16 13 8 -17z m-2234 20 c0 -2 -9 -6 -20 -9 -11 -3
-20 -1 -20 4 0 5 9 9 20 9 11 0 20 -2 20 -4z m37 -2 c-3 -3 -12 -4 -19 -1 -8
3 -5 6 6 6 11 1 17 -2 13 -5z m4140 -26 c-3 -8 -6 -5 -6 6 -1 11 2 17 5 13 3
-3 4 -12 1 -19z m1997 1 c-3 -5 -10 -7 -15 -3 -5 3 -7 10 -3 15 3 5 10 7 15 3
5 -3 7 -10 3 -15z m-117 -11 c-3 -8 -6 -5 -6 6 -1 11 2 17 5 13 3 -3 4 -12 1
-19z m-6087 -9 c0 -11 -4 -17 -10 -14 -5 3 -10 13 -10 21 0 8 5 14 10 14 6 0
10 -9 10 -21z m2320 8 c0 -8 -7 -14 -15 -14 -16 0 -19 9 -8 20 11 11 23 8 23
-6z m3820 -34 c0 -20 -3 -24 -11 -16 -7 7 -9 19 -6 27 10 24 17 19 17 -11z
m-1909 -34 c-6 -16 -10 -18 -10 -7 -1 22 12 55 16 42 2 -6 -1 -22 -6 -35z
m-4246 21 c3 -5 1 -10 -4 -10 -6 0 -11 5 -11 10 0 6 2 10 4 10 3 0 8 -4 11
-10z m6085 -30 c0 -5 -2 -10 -4 -10 -3 0 -8 5 -11 10 -3 6 -1 10 4 10 6 0 11
-4 11 -10z m-1884 -47 c-10 -26 -18 -8 -9 23 5 21 8 24 11 11 2 -10 1 -25 -2
-34z m384 -15 c-1 -24 -7 -56 -15 -73 l-15 -30 5 38 c4 22 2 37 -5 37 -13 0
-13 11 0 44 15 40 30 31 30 -16z m226 31 c10 -17 -13 -36 -27 -22 -12 12 -4
33 11 33 5 0 12 -5 16 -11z m-2309 -36 c-3 -10 -5 -4 -5 12 0 17 2 24 5 18 2
-7 2 -21 0 -30z m3655 5 c-5 -31 -5 -32 -14 -8 -7 20 0 36 18 40 0 0 -2 -14
-4 -32z m-4012 3 c0 -6 -4 -13 -10 -16 -5 -3 -10 1 -10 9 0 9 5 16 10 16 6 0
10 -4 10 -9z m2616 -54 c1 -9 -10 -26 -26 -37 -25 -18 -29 -18 -41 -4 -11 14
-9 20 15 41 31 26 48 26 52 0z m1351 -19 c-3 -8 -6 -5 -6 6 -1 11 2 17 5 13 3
-3 4 -12 1 -19z m-5907 -8 c0 -5 -4 -10 -10 -10 -5 0 -10 5 -10 10 0 6 5 10
10 10 6 0 10 -4 10 -10z m2067 -22 c-3 -7 -5 -2 -5 12 0 14 2 19 5 13 2 -7 2
-19 0 -25z m3316 -48 c-3 -11 0 -20 6 -20 6 0 11 -12 10 -27 0 -25 -1 -26 -10
-8 -7 15 -8 12 -4 -15 3 -24 -3 -51 -20 -85 -16 -34 -24 -43 -25 -30 -4 41 2
81 16 107 8 15 14 43 14 63 0 19 4 35 9 35 5 0 7 -9 4 -20z m-4956 -107 c-3
-10 -5 -4 -5 12 0 17 2 24 5 18 2 -7 2 -21 0 -30z m5589 10 c-10 -10 -19 5
-10 18 6 11 8 11 12 0 2 -7 1 -15 -2 -18z m-26 -29 c0 -8 5 -14 10 -14 6 0 10
-16 10 -36 0 -21 -4 -33 -10 -29 -5 3 -10 19 -10 36 0 16 -4 29 -10 29 -5 0
-10 9 -10 21 0 11 5 17 10 14 6 -3 10 -13 10 -21z m-4073 -16 c-3 -8 -6 -5 -6
6 -1 11 2 17 5 13 3 -3 4 -12 1 -19z m-20 -70 c-3 -7 -5 -2 -5 12 0 14 2 19 5
13 2 -7 2 -19 0 -25z m3419 -15 c-11 -11 -19 6 -11 24 8 17 8 17 12 0 3 -10 2
-21 -1 -24z m744 -28 c0 -19 -4 -35 -10 -35 -5 0 -10 11 -10 25 0 14 -4 25
-10 25 -5 0 -10 9 -10 20 0 18 3 19 20 10 14 -8 20 -21 20 -45z m-754 -22
c-10 -10 -19 5 -10 18 6 11 8 11 12 0 2 -7 1 -15 -2 -18z m-3359 -25 c-3 -8
-6 -5 -6 6 -1 11 2 17 5 13 3 -3 4 -12 1 -19z m-71 -15 c-10 -10 -19 5 -10 18
6 11 8 11 12 0 2 -7 1 -15 -2 -18z m-11 -65 c-6 -41 -23 -83 -30 -76 -3 3 7
54 21 106 8 30 14 8 9 -30z m58 -17 c-5 -3 -13 -15 -16 -25 -4 -10 -10 -16
-13 -13 -3 3 2 19 10 36 9 16 17 38 17 48 1 10 4 5 6 -11 3 -16 1 -32 -4 -35z
m3318 16 c-10 -9 -11 -8 -5 6 3 10 9 15 12 12 3 -3 0 -11 -7 -18z m787 -2 c0
-24 -23 -53 -34 -42 -3 3 0 16 7 29 7 12 12 26 11 31 -1 4 2 7 7 7 5 0 9 -11
9 -25z m-123 6 c3 -5 1 -12 -5 -16 -5 -3 -10 1 -10 9 0 18 6 21 15 7z m-3905
-30 c0 -6 -4 -13 -10 -16 -5 -3 -10 -25 -10 -48 1 -39 2 -41 15 -23 8 11 15
31 15 44 0 28 23 25 29 -3 2 -10 14 -35 27 -54 20 -31 22 -41 14 -76 -12 -51
-13 -118 -1 -111 9 6 27 103 22 120 -1 5 5 4 14 -4 8 -7 15 -18 14 -24 -4 -32
2 -66 10 -61 6 3 18 -11 27 -31 16 -33 19 -35 30 -20 11 16 14 14 25 -17 9
-27 16 -33 32 -29 17 4 19 2 13 -19 -4 -13 -13 -47 -20 -74 -7 -28 -20 -66
-29 -84 -9 -19 -17 -41 -17 -49 0 -8 -9 -33 -19 -56 -11 -23 -28 -60 -37 -83
-19 -47 -37 -54 -54 -23 -6 11 -16 17 -25 14 -18 -7 -20 7 -4 23 12 12 3 53
-11 53 -5 0 -11 -8 -14 -17 -3 -10 -4 -1 -3 20 2 20 -1 37 -5 37 -11 0 -10
-64 2 -76 6 -6 6 -30 -1 -70 -7 -42 -7 -68 1 -88 6 -16 13 -26 16 -24 2 3 -1
18 -8 33 -10 23 -10 29 0 33 6 2 12 12 12 23 0 31 19 22 35 -17 20 -48 20 -88
0 -80 -11 4 -15 -2 -15 -26 0 -34 -19 -107 -32 -124 -10 -14 -38 -118 -38
-143 0 -9 -7 -26 -15 -37 -13 -16 -16 -17 -26 -4 -8 12 -9 9 -4 -13 3 -17 2
-26 -4 -23 -5 4 -12 -7 -16 -24 -4 -16 -10 -30 -14 -30 -16 0 -15 323 0 352 6
12 6 18 -1 18 -5 0 -10 -7 -10 -15 0 -18 -17 -20 -23 -2 -2 6 -3 1 -1 -13 4
-28 6 -98 5 -117 -1 -7 -7 -13 -15 -13 -14 0 -30 55 -20 74 3 6 -1 2 -10 -8
-8 -10 -17 -23 -18 -28 -5 -13 -38 2 -38 17 0 7 6 16 13 19 8 3 7 8 -5 16 -17
10 -17 13 -3 40 12 23 13 30 3 30 -9 0 -12 15 -10 55 3 49 2 54 -14 48 -14 -5
-16 -2 -11 23 4 16 12 62 19 102 12 75 22 88 38 50 8 -22 9 -21 10 7 1 17 3
53 5 80 2 28 4 56 4 63 1 7 5 11 10 8 4 -3 6 -22 4 -42 -2 -20 1 -42 7 -49 6
-7 9 -25 8 -41 -4 -68 3 -297 9 -290 4 4 8 22 9 39 0 18 2 69 4 115 2 45 0 85
-4 89 -10 10 -7 20 10 37 15 16 11 41 -6 31 -8 -5 -14 36 -21 130 -2 33 -2 38
4 135 3 50 3 53 -2 15 -4 -34 -8 -44 -12 -29 -7 23 -3 156 6 192 6 26 25 20
25 -9 0 -10 4 -19 9 -19 11 0 7 47 -8 83 -13 34 -15 75 -2 62 5 -6 11 -19 14
-30 4 -19 5 -19 6 1 1 28 31 86 31 62 0 -10 5 -18 10 -18 6 0 10 9 10 20 0 13
7 20 20 20 11 0 20 -4 20 -9z m-2231 -57 c-15 -18 -22 -13 -13 10 3 9 10 13
16 10 5 -3 4 -12 -3 -20z m246 -14 c-3 -5 -11 -10 -16 -10 -6 0 -7 5 -4 10 3
6 11 10 16 10 6 0 7 -4 4 -10z m1772 -32 c-3 -8 -6 -5 -6 6 -1 11 2 17 5 13 3
-3 4 -12 1 -19z m647 1 c14 -11 70 -40 124 -65 53 -24 94 -44 90 -45 -5 0 -18
-1 -30 -1 -22 -1 -31 2 -73 18 -11 4 -24 8 -30 9 -5 0 -16 4 -22 8 -8 5 -13 4
-13 -2 0 -6 -7 -11 -15 -11 -10 0 -15 10 -15 26 0 23 -2 25 -16 13 -10 -8 -13
-21 -9 -36 3 -13 2 -23 -2 -22 -22 4 -33 -3 -34 -18 0 -11 -3 -13 -6 -5 -2 6
-9 10 -14 6 -12 -7 -12 -5 7 77 8 38 19 69 23 69 5 0 20 -9 35 -21z m-2802
-21 c-9 -9 -12 -7 -12 12 0 19 3 21 12 12 9 -9 9 -15 0 -24z m5328 7 c0 -8 -9
-15 -20 -15 -13 0 -18 5 -14 15 4 8 12 15 20 15 8 0 14 -7 14 -15z m-5020 -63
c0 -11 -37 -32 -44 -25 -8 9 14 33 30 33 8 0 14 -3 14 -8z m5181 -19 c-8 -15
-10 -15 -11 -2 0 17 10 32 18 25 2 -3 -1 -13 -7 -23z m-5571 7 c0 -5 -2 -10
-4 -10 -3 0 -8 5 -11 10 -3 6 -1 10 4 10 6 0 11 -4 11 -10z m530 1 c0 -5 -7
-14 -15 -21 -16 -14 -18 -10 -9 14 6 17 24 22 24 7z m2230 -3 c0 -13 -19 -47
-21 -38 -6 33 -4 50 8 50 7 0 13 -6 13 -12z m2715 -8 c3 -11 9 -20 13 -20 4 0
13 -4 21 -9 11 -7 9 -14 -10 -34 -28 -28 -61 -43 -53 -23 3 7 -9 27 -26 43
-30 30 -31 31 -11 38 11 3 25 3 31 0 5 -3 10 1 10 9 0 23 17 20 25 -4z m1005
10 c0 -5 -5 -10 -11 -10 -5 0 -7 5 -4 10 3 6 8 10 11 10 2 0 4 -4 4 -10z
m-3821 -52 c1 -5 -3 -8 -9 -8 -5 0 -10 12 -9 28 0 24 1 25 9 7 5 -11 9 -23 9
-27z m-469 22 c0 -5 -4 -10 -10 -10 -5 0 -10 5 -10 10 0 6 5 10 10 10 6 0 10
-4 10 -10z m420 6 c0 -3 -4 -8 -10 -11 -5 -3 -10 -1 -10 4 0 6 5 11 10 11 6 0
10 -2 10 -4z m-2267 -28 c6 -22 -19 -75 -30 -65 -8 8 7 87 17 87 4 0 10 -10
13 -22z m-186 -10 c-3 -8 -6 -5 -6 6 -1 11 2 17 5 13 3 -3 4 -12 1 -19z m335
-10 c-7 -7 -12 -8 -12 -2 0 14 12 26 19 19 2 -3 -1 -11 -7 -17z m-212 -28 c0
-32 -23 -51 -41 -33 -6 6 -2 19 11 36 27 34 30 34 30 -3z m2557 -2 c-3 -7 -5
-2 -5 12 0 14 2 19 5 13 2 -7 2 -19 0 -25z m728 2 c-3 -5 -10 -10 -16 -10 -5
0 -9 5 -9 10 0 6 7 10 16 10 8 0 12 -4 9 -10z m-4035 -40 c0 -23 -10 -26 -28
-8 -18 18 -15 28 8 28 13 0 20 -7 20 -20z m3190 16 c0 -11 -19 -15 -25 -6 -3
5 1 10 9 10 9 0 16 -2 16 -4z m-2423 -38 c-3 -8 -6 -5 -6 6 -1 11 2 17 5 13 3
-3 4 -12 1 -19z m-96 -55 c-23 -16 -26 -8 -10 29 13 32 13 32 19 8 4 -17 1
-29 -9 -37z m174 47 c3 -5 -1 -10 -9 -10 -9 0 -16 5 -16 10 0 6 4 10 9 10 6 0
13 -4 16 -10z m-595 -29 c0 -8 -43 -41 -54 -41 -3 0 0 11 6 25 10 23 48 36 48
16z m2427 -23 c-3 -8 -6 -5 -6 6 -1 11 2 17 5 13 3 -3 4 -12 1 -19z m73 12
c13 -8 12 -10 -2 -10 -11 0 -18 -8 -18 -21 0 -11 5 -17 10 -14 6 3 10 -1 10
-9 0 -9 -6 -13 -15 -10 -17 7 -30 -34 -20 -64 3 -11 1 -23 -5 -27 -16 -10 -16
98 1 142 9 25 16 28 39 13z m-2650 -40 c0 -5 -2 -10 -4 -10 -3 0 -8 5 -11 10
-3 6 -1 10 4 10 6 0 11 -4 11 -10z m200 -30 c0 -5 7 -7 15 -4 8 4 15 1 15 -5
0 -6 -7 -11 -16 -11 -9 0 -27 -9 -41 -20 -14 -11 -32 -20 -39 -20 -8 0 -14 -5
-14 -12 0 -6 -3 -9 -6 -5 -7 7 65 87 78 87 4 0 8 -4 8 -10z m321 -63 c-6 -15
-17 -27 -26 -27 -21 0 -19 16 8 51 25 34 35 20 18 -24z m6032 13 c-3 -12 -8
-19 -11 -16 -5 6 5 36 12 36 2 0 2 -9 -1 -20z m-943 0 c12 -8 10 -10 -10 -9
-14 0 -34 4 -45 9 -17 7 -16 9 10 9 17 0 37 -4 45 -9z m-5400 -15 c0 -9 -9
-15 -22 -15 -22 1 -23 1 -4 15 25 19 26 19 26 0z m2357 -17 c-3 -7 -5 -2 -5
12 0 14 2 19 5 13 2 -7 2 -19 0 -25z m4190 -30 c-2 -13 -4 -5 -4 17 -1 22 1
32 4 23 2 -10 2 -28 0 -40z m-6518 13 c-15 -5 -22 6 -14 19 6 9 10 9 16 -1 5
-8 4 -15 -2 -18z m-87 -26 c-3 -16 -11 -25 -22 -25 -18 0 -21 15 -7 38 15 22
35 14 29 -13z m328 -23 c0 -21 -2 -24 -10 -12 -13 20 -13 53 0 45 6 -3 10 -18
10 -33z m2115 8 c-4 -12 -9 -19 -12 -17 -3 3 -2 15 2 27 4 12 9 19 12 17 3 -3
2 -15 -2 -27z m-2393 -35 c4 -20 2 -23 -8 -14 -7 6 -10 17 -7 25 7 20 10 18
15 -11z m-32 -36 c0 -5 -7 -9 -15 -9 -15 0 -20 12 -9 23 8 8 24 -1 24 -14z
m2371 -62 c-13 -13 -15 15 -3 53 7 24 7 23 10 -9 2 -18 -1 -38 -7 -44z m-2481
33 c0 -11 -4 -20 -9 -20 -5 0 -7 9 -4 20 3 11 7 20 9 20 2 0 4 -9 4 -20z m130
-50 c0 -5 -7 -10 -15 -10 -8 0 -15 5 -15 10 0 6 7 10 15 10 8 0 15 -4 15 -10z
m6487 -22 c-3 -8 -6 -5 -6 6 -1 11 2 17 5 13 3 -3 4 -12 1 -19z m-4187 -24 c0
-8 -5 -12 -10 -9 -6 4 -8 11 -5 16 9 14 15 11 15 -7z m47 -16 c-3 -8 -6 -5 -6
6 -1 11 2 17 5 13 3 -3 4 -12 1 -19z m-2433 -13 c-4 -8 -10 -15 -15 -15 -4 0
-6 7 -3 15 4 8 10 15 15 15 4 0 6 -7 3 -15z m140 -30 c-10 -8 -24 -15 -29 -15
-6 0 -41 -18 -79 -40 -38 -22 -72 -37 -75 -34 -3 4 0 9 7 11 7 3 25 15 40 28
15 12 44 28 64 34 21 7 40 17 43 22 4 5 16 9 28 9 20 0 20 0 1 -15z m2286 -87
c0 -29 -4 -48 -9 -42 -8 8 -3 94 5 94 2 0 4 -23 4 -52z m3601 -45 c-5 -11 -10
-37 -9 -59 0 -44 -50 -165 -67 -160 -13 4 -9 76 5 90 5 5 10 20 10 32 0 13 5
26 10 29 6 3 10 11 10 16 0 6 -5 7 -11 3 -6 -3 -4 8 5 24 15 28 46 55 54 47 2
-2 -1 -12 -7 -22z m-5214 -50 c-3 -10 -5 -4 -5 12 0 17 2 24 5 18 2 -7 2 -21
0 -30z m5236 9 c-3 -12 -9 -22 -14 -22 -12 0 -11 7 2 32 13 25 20 19 12 -10z
m-96 -47 c-4 -8 -11 -15 -17 -15 -7 0 -7 6 0 21 13 23 26 19 17 -6z m-3412
-24 c-3 -6 -14 -11 -23 -11 -13 0 -13 2 4 14 21 15 30 14 19 -3z m-2405 -10
c0 -11 -39 -21 -45 -11 -2 4 -2 10 2 14 10 9 43 7 43 -3z m6353 -31 c-3 -11
-9 -17 -15 -14 -5 3 -4 12 3 20 16 19 18 18 12 -6z m-6233 -14 c0 -3 -4 -8
-10 -11 -5 -3 -10 -1 -10 4 0 6 5 11 10 11 6 0 10 -2 10 -4z m6269 -42 c12
-15 21 -34 21 -43 0 -10 4 -21 9 -26 5 -6 11 -50 15 -98 3 -48 8 -92 11 -97 3
-5 1 -11 -4 -14 -12 -8 -38 117 -40 192 -1 18 -5 31 -10 27 -13 -8 -41 35 -41
62 0 30 14 29 39 -3z m-6550 -30 c-9 -11 -15 -12 -23 -4 -8 8 -7 13 4 20 20
12 33 1 19 -16z m66 -24 c29 15 46 6 23 -13 -9 -6 -17 -18 -19 -24 -3 -9 -13
-7 -37 7 -18 11 -30 25 -27 31 5 7 12 6 21 -2 12 -9 20 -9 39 1z m2559 -5 c-4
-8 -8 -15 -10 -15 -2 0 -4 7 -4 15 0 8 4 15 10 15 5 0 7 -7 4 -15z m75 -109
c-6 -6 -9 -6 -9 2 0 6 -7 9 -15 6 -11 -5 -15 1 -15 20 0 14 5 26 10 26 6 0 10
8 10 18 0 10 3 22 8 26 10 11 21 -87 11 -98z m-2693 67 c-7 -7 -26 7 -26 19 0
6 6 6 15 -2 9 -7 13 -15 11 -17z m234 13 c0 -2 -7 -7 -16 -10 -8 -3 -12 -2 -9
4 6 10 25 14 25 6z m2384 -67 c-6 -33 -9 -39 -14 -24 -7 19 -6 25 5 61 10 31
16 7 9 -37z m-2584 25 c0 -8 -5 -12 -10 -9 -6 4 -8 11 -5 16 9 14 15 11 15 -7z
m6284 -9 c-4 -8 -8 -15 -10 -15 -2 0 -4 7 -4 15 0 8 4 15 10 15 5 0 7 -7 4
-15z m96 -32 c0 -7 -7 -13 -16 -13 -11 0 -14 5 -10 16 3 9 6 21 6 27 0 16 20
-14 20 -30z m-6585 -42 c-16 -33 -35 -41 -35 -16 0 8 7 15 15 15 8 0 15 9 15
19 0 11 3 28 7 38 7 16 8 16 11 -4 2 -12 -4 -35 -13 -52z m92 27 c-3 -7 -5 -2
-5 12 0 14 2 19 5 13 2 -7 2 -19 0 -25z m111 -10 c-2 -6 -10 -14 -16 -16 -7
-2 -10 2 -6 12 7 18 28 22 22 4z m2656 -9 c-8 -14 -24 -10 -24 6 0 9 6 12 15
9 8 -4 12 -10 9 -15z m3621 1 c3 -5 1 -10 -4 -10 -6 0 -11 5 -11 10 0 6 2 10
4 10 3 0 8 -4 11 -10z m131 -82 c-4 63 9 79 18 22 3 -22 10 -40 15 -40 18 0
34 -120 31 -229 -1 -51 -6 -71 -26 -96 -13 -18 -24 -37 -24 -43 0 -7 -4 -12
-10 -12 -5 0 -10 10 -10 23 0 13 -4 27 -8 33 -20 22 -57 354 -40 354 4 0 8 13
8 28 0 55 15 43 32 -25 l18 -68 -4 53z m92 57 c7 -14 12 -37 12 -50 0 -15 7
-26 19 -30 15 -4 19 -14 18 -38 -2 -18 -5 -37 -9 -42 -3 -6 -9 -27 -13 -48
-10 -51 -25 -47 -25 8 0 24 -4 66 -9 92 -17 86 -21 133 -13 133 5 0 14 -11 20
-25z m-228 0 c0 -3 -9 -15 -20 -27 l-20 -22 0 21 c0 19 11 30 33 32 4 1 7 -1
7 -4z m-3555 -14 c3 -5 1 -12 -5 -16 -5 -3 -10 1 -10 9 0 18 6 21 15 7z
m-2857 -40 c3 -8 -1 -12 -9 -9 -7 2 -15 10 -17 17 -3 8 1 12 9 9 7 -2 15 -10
17 -17z m6386 -50 c-4 -14 -6 -34 -6 -43 0 -9 -6 -22 -14 -29 -8 -6 -14 -20
-14 -30 0 -11 -5 -19 -10 -19 -14 0 -4 91 11 101 7 4 12 21 12 38 0 25 3 29
14 19 10 -8 12 -20 7 -37z m-6064 9 c0 -5 -2 -10 -4 -10 -3 0 -8 5 -11 10 -3
6 -1 10 4 10 6 0 11 -4 11 -10z m5990 -80 c-5 -10 -10 -33 -10 -51 0 -28 2
-30 16 -18 14 12 16 11 12 -6 -2 -11 -10 -19 -16 -17 -7 1 -13 -2 -13 -8 -1
-5 -2 -14 -3 -19 0 -5 -4 -13 -9 -17 -4 -4 -4 22 -1 57 7 88 13 111 24 104 7
-4 6 -13 0 -25z m-6090 -10 c0 -5 -5 -10 -12 -10 -18 0 -57 -41 -52 -54 2 -6
-5 -12 -16 -13 -11 -1 -20 4 -20 13 0 8 4 14 9 14 5 0 12 8 16 19 8 28 75 55
75 31z m6214 -127 c25 -22 44 -72 59 -163 2 -9 7 -21 11 -29 5 -7 3 -18 -3
-24 -6 -6 -11 -18 -11 -27 0 -9 -18 -34 -41 -55 -39 -39 -41 -39 -55 -20 -13
18 -14 17 -8 -11 4 -22 2 -33 -8 -37 -25 -9 -41 9 -34 36 3 14 2 29 -4 32 -5
3 -10 16 -10 29 0 12 -3 26 -7 30 -5 4 -9 27 -9 49 -5 169 -5 179 20 231 19
40 36 47 36 15 0 -11 5 -17 10 -14 6 3 7 17 4 30 -3 13 -2 30 3 37 5 8 10 -4
14 -36 4 -37 12 -55 33 -73z m48 25 c7 2 6 -3 -2 -13 -11 -14 -14 -12 -26 11
-18 35 -17 44 2 19 8 -11 20 -19 26 -17z m-6359 -124 c9 -9 -4 -35 -14 -28 -5
3 -9 12 -9 20 0 14 12 19 23 8z m434 -56 c-3 -7 -5 -2 -5 12 0 14 2 19 5 13 2
-7 2 -19 0 -25z m6036 -20 c-6 -7 -13 -22 -16 -33 -4 -16 -5 -14 -6 7 -1 38 9
62 22 49 7 -7 7 -14 0 -23z m-6006 -40 c-3 -8 -6 -5 -6 6 -1 11 2 17 5 13 3
-3 4 -12 1 -19z m-19 -66 c0 -19 5 -37 10 -41 6 -4 15 -24 20 -46 5 -22 13
-48 17 -58 7 -16 4 -17 -21 -11 -16 3 -41 19 -57 35 -26 27 -27 30 -16 81 14
73 15 75 32 75 10 0 15 -11 15 -35z m170 8 c9 -16 20 -30 23 -30 3 0 4 -11 1
-25 -2 -14 0 -25 6 -25 5 0 12 -9 15 -19 4 -17 -4 -14 -45 15 -28 19 -54 34
-58 34 -4 0 -11 8 -14 17 -4 10 -4 14 0 10 4 -4 13 6 20 23 16 38 30 38 52 0z
m5783 -7 c1 -17 3 -21 6 -10 6 22 23 22 23 -1 0 -21 -18 -42 -36 -42 -14 0
-29 54 -19 70 12 19 25 10 26 -17z m-6441 7 c0 -5 -5 -10 -11 -10 -5 0 -7 5
-4 10 3 6 8 10 11 10 2 0 4 -4 4 -10z m740 -87 c0 -7 5 -13 10 -13 6 0 10 -8
10 -17 -1 -16 -2 -16 -16 2 -9 11 -23 34 -31 50 l-16 30 22 -19 c11 -11 21
-25 21 -33z m5668 6 c2 -13 10 -31 17 -39 9 -10 11 -21 5 -29 -7 -12 -15 -12
-54 3 -25 10 -51 14 -57 11 -11 -7 -8 -45 6 -77 4 -11 3 -18 -4 -18 -6 0 -11
6 -11 13 0 6 -9 23 -20 37 -21 27 -29 83 -9 63 8 -8 16 -7 28 3 80 70 94 74
99 33z m98 -31 c1 -13 6 -38 10 -57 l7 -34 -24 16 c-13 9 -31 17 -40 17 -15 0
-16 7 -10 82 1 10 35 16 45 7 5 -4 10 -18 12 -31z m-1632 -24 c3 -8 2 -12 -4
-9 -6 3 -10 10 -10 16 0 14 7 11 14 -7z m-4404 -49 c0 -3 -15 -5 -34 -5 -29 0
-33 3 -29 20 5 18 7 18 34 4 16 -8 29 -17 29 -19z m5353 -70 c-3 -9 -8 -14
-10 -11 -3 3 -2 9 2 15 9 16 15 13 8 -4z m-396 -157 c-3 -8 -6 -5 -6 6 -1 11
2 17 5 13 3 -3 4 -12 1 -19z m14 -91 c-8 -8 -11 -7 -11 4 0 20 13 34 18 19 3
-7 -1 -17 -7 -23z m-621 -367 c0 -5 -5 -10 -11 -10 -5 0 -7 5 -4 10 3 6 8 10
11 10 2 0 4 -4 4 -10z m-43 -6 c-3 -3 -12 -4 -19 -1 -8 3 -5 6 6 6 11 1 17 -2
13 -5z m140 0 c-3 -3 -12 -4 -19 -1 -8 3 -5 6 6 6 11 1 17 -2 13 -5z m-217
-18 c-21 -19 -100 -37 -94 -22 3 7 24 17 47 23 60 15 63 14 47 -1z m1706 -58
c-18 -26 -22 -17 -5 14 6 11 13 17 16 15 3 -3 -2 -16 -11 -29z m-5216 -17 c7
-2 -23 -21 -32 -21 -5 0 -8 6 -8 14 0 8 8 13 18 11 9 -2 19 -4 22 -4z m229
-23 c0 -27 -2 -29 -8 -13 -5 11 -6 26 -4 33 8 21 13 13 12 -20z m3 -107 c2
-17 1 -28 -4 -25 -8 5 -12 54 -4 54 2 0 6 -13 8 -29z m3168 -445 c0 -3 -4 -8
-10 -11 -5 -3 -10 -1 -10 4 0 6 5 11 10 11 6 0 10 -2 10 -4z m-20 -35 c0 -5
-7 -14 -15 -21 -8 -7 -17 -28 -21 -47 -4 -22 -10 -31 -16 -25 -12 12 25 102
41 102 6 0 11 -4 11 -9z m-68 -133 c-7 -7 -12 -8 -12 -2 0 14 12 26 19 19 2
-3 -1 -11 -7 -17z"/>
<path d="M4800 6263 c0 -4 5 -15 10 -23 8 -13 10 -13 10 2 0 9 -4 20 -10 23
-5 3 -10 3 -10 -2z"/>
<path d="M4690 6159 c0 -4 7 -9 15 -13 9 -3 15 0 15 8 0 7 -7 13 -15 13 -8 0
-15 -4 -15 -8z"/>
<path d="M2011 6164 c0 -11 3 -14 6 -6 3 7 2 16 -1 19 -3 4 -6 -2 -5 -13z"/>
<path d="M4385 5720 c3 -5 8 -10 11 -10 2 0 4 5 4 10 0 6 -5 10 -11 10 -5 0
-7 -4 -4 -10z"/>
<path d="M4470 5610 c0 -5 5 -10 11 -10 5 0 7 5 4 10 -3 6 -8 10 -11 10 -2 0
-4 -4 -4 -10z"/>
<path d="M4600 5589 c0 -5 5 -7 10 -4 6 3 10 8 10 11 0 2 -4 4 -10 4 -5 0 -10
-5 -10 -11z"/>
<path d="M4206 5531 c-4 -5 -2 -12 3 -15 5 -4 12 -2 15 3 4 5 2 12 -3 15 -5 4
-12 2 -15 -3z"/>
<path d="M5260 5180 c0 -5 5 -10 10 -10 6 0 10 5 10 10 0 6 -4 10 -10 10 -5 0
-10 -4 -10 -10z"/>
<path d="M5405 5170 c-3 -5 -1 -10 4 -10 6 0 11 5 11 10 0 6 -2 10 -4 10 -3 0
-8 -4 -11 -10z"/>
<path d="M3870 5181 c-12 -24 -13 -64 -1 -57 8 5 21 76 14 76 -1 0 -7 -9 -13
-19z"/>
<path d="M3915 5166 c-3 -9 -7 -23 -10 -31 -2 -8 -1 -15 4 -15 10 0 25 50 17
58 -3 2 -8 -3 -11 -12z"/>
<path d="M4525 5160 c3 -5 8 -10 11 -10 2 0 4 5 4 10 0 6 -5 10 -11 10 -5 0
-7 -4 -4 -10z"/>
<path d="M4583 5144 c3 -4 -1 -13 -9 -22 -11 -10 -12 -18 -5 -25 6 -6 11 -22
11 -35 0 -13 4 -21 10 -17 5 3 20 3 34 -1 21 -5 24 -9 15 -25 -12 -23 -26 -25
-31 -4 -2 9 -8 12 -16 6 -12 -7 -11 -13 2 -37 8 -16 15 -23 16 -15 0 7 6 11
15 7 21 -8 53 53 33 65 -7 5 -16 9 -20 9 -4 0 -10 9 -13 20 -3 11 -13 20 -21
20 -8 0 -14 5 -14 11 0 6 6 9 14 6 18 -7 31 24 14 35 -15 9 -44 11 -35 2z"/>
<path d="M4086 5115 c-9 -9 -16 -32 -16 -50 0 -19 -4 -36 -8 -39 -11 -7 -14
-76 -3 -76 5 0 11 -9 14 -20 4 -17 2 -18 -14 -9 -33 17 -42 1 -36 -69 4 -54 9
-69 34 -94 36 -35 100 -48 141 -27 85 42 115 86 127 182 7 51 10 57 31 57 12
0 26 -4 29 -10 3 -5 13 -10 21 -10 31 0 81 -63 98 -125 31 -112 41 -140 51
-140 14 0 43 63 48 105 3 19 8 43 12 53 4 10 3 17 -4 17 -6 0 -11 9 -11 20 0
11 4 20 9 20 4 0 6 11 3 25 -2 14 -10 25 -16 25 -6 0 -29 23 -49 50 -23 31
-45 50 -57 50 -11 0 -20 3 -20 8 0 9 -74 42 -95 42 -8 0 -15 5 -15 10 0 6 -12
10 -26 10 l-27 0 28 -25 c21 -20 30 -23 41 -14 11 9 16 6 24 -16 6 -15 8 -31
4 -36 -9 -15 -54 -10 -60 6 -4 8 -14 15 -24 15 -22 0 -34 31 -25 60 4 11 2 20
-4 20 -6 0 -11 -11 -11 -24 0 -14 -7 -31 -15 -40 -13 -12 -19 -12 -42 -2 -22
11 -61 13 -92 7 -2 -1 2 -8 9 -16 15 -18 5 -50 -12 -38 -7 4 -17 8 -22 8 -15
0 -18 48 -5 72 16 29 7 39 -15 18z m372 -92 c-2 -10 -13 -19 -26 -21 -25 -4
-28 2 -9 23 17 20 39 18 35 -2z m56 -29 c9 -22 -1 -34 -30 -34 -27 0 -28 3
-14 31 13 23 36 25 44 3z m-288 -71 c-3 -7 -12 -13 -21 -13 -18 0 -20 41 -3
58 10 10 14 8 21 -10 4 -12 5 -28 3 -35z"/>
<path d="M4685 5090 c3 -5 14 -10 23 -10 13 0 13 -2 -4 -15 -18 -14 -17 -15
11 -10 l30 5 -28 -12 c-21 -9 -26 -16 -20 -32 4 -12 7 -31 8 -43 0 -18 6 -23
27 -23 15 0 30 5 33 10 3 6 -1 10 -9 10 -19 0 -20 7 -5 49 14 38 27 40 31 4 2
-19 8 -27 18 -24 8 2 23 3 33 3 9 0 17 2 17 6 0 7 -79 62 -117 81 -27 14 -56
14 -48 1z"/>
<path d="M4111 5073 c-1 -12 4 -25 9 -28 12 -7 12 2 0 30 -8 19 -9 19 -9 -2z"/>
<path d="M4674 4962 c-5 -17 -12 -22 -26 -19 -14 4 -18 1 -16 -10 2 -9 8 -18
15 -20 15 -5 47 42 40 59 -4 8 -8 4 -13 -10z"/>
<path d="M3817 4813 c-4 -3 -7 -11 -7 -17 0 -6 5 -5 12 2 6 6 9 14 7 17 -3 3
-9 2 -12 -2z"/>
<path d="M3853 4803 c-15 -6 -17 -53 -3 -53 6 0 13 6 16 14 8 22 1 44 -13 39z"/>
<path d="M3916 4685 c-9 -23 -8 -25 9 -25 17 0 19 9 6 28 -7 11 -10 10 -15 -3z"/>
<path d="M4503 4668 c-13 -6 -23 -18 -23 -27 1 -14 2 -13 11 2 5 9 19 17 29
17 11 0 20 5 20 10 0 12 -8 12 -37 -2z"/>
<path d="M4996 4673 c7 -4 14 -17 17 -28 5 -16 5 -15 4 4 -1 14 -9 26 -17 28
-10 3 -11 2 -4 -4z"/>
<path d="M4356 4642 c-3 -6 8 -12 24 -14 19 -3 29 -1 27 6 -5 14 -43 20 -51 8z"/>
<path d="M4390 4590 c-13 -8 -12 -10 3 -10 9 0 17 5 17 10 0 12 -1 12 -20 0z"/>
<path d="M4295 4550 c-3 -5 1 -10 9 -10 9 0 16 5 16 10 0 6 -4 10 -9 10 -6 0
-13 -4 -16 -10z"/>
<path d="M3672 4420 c0 -14 2 -19 5 -12 2 6 2 18 0 25 -3 6 -5 1 -5 -13z"/>
<path d="M3281 5128 c0 -9 -4 -25 -7 -35 -5 -17 -5 -17 6 0 6 10 9 25 7 35 -4
15 -5 15 -6 0z"/>
<path d="M3123 5074 c-3 -8 -1 -20 6 -27 8 -8 11 -4 11 16 0 30 -7 35 -17 11z"/>
<path d="M3256 4805 c-9 -25 -7 -81 3 -69 14 15 21 58 12 72 -7 11 -10 10 -15
-3z"/>
<path d="M3256 4464 c-10 -25 -7 -64 4 -64 13 0 32 49 26 67 -7 18 -23 16 -30
-3z"/>
<path d="M3267 4340 c-3 -11 -1 -23 4 -26 5 -3 9 6 9 20 0 31 -6 34 -13 6z"/>
<path d="M3310 4066 c0 -14 5 -26 10 -26 6 0 10 9 10 19 0 11 -4 23 -10 26 -6
4 -10 -5 -10 -19z"/>
<path d="M3381 3864 c0 -11 3 -14 6 -6 3 7 2 16 -1 19 -3 4 -6 -2 -5 -13z"/>
<path d="M6676 4454 c-4 -9 -4 -19 -1 -22 2 -3 7 3 11 12 4 9 4 19 1 22 -2 3
-7 -3 -11 -12z"/>
<path d="M5865 4350 c-3 -5 -1 -10 4 -10 6 0 11 5 11 10 0 6 -2 10 -4 10 -3 0
-8 -4 -11 -10z"/>
<path d="M6636 4335 c-3 -8 -1 -15 4 -15 6 0 10 7 10 15 0 8 -2 15 -4 15 -2 0
-6 -7 -10 -15z"/>
<path d="M5712 4250 c0 -14 2 -19 5 -12 2 6 2 18 0 25 -3 6 -5 1 -5 -13z"/>
<path d="M5564 4247 c-8 -21 2 -35 16 -21 5 5 6 15 0 24 -8 12 -10 12 -16 -3z"/>
<path d="M5676 4195 c-9 -26 -7 -32 5 -12 6 10 9 21 6 23 -2 3 -7 -2 -11 -11z"/>
<path d="M5742 4180 c0 -14 2 -19 5 -12 2 6 2 18 0 25 -3 6 -5 1 -5 -13z"/>
<path d="M5700 4175 c0 -8 2 -15 4 -15 2 0 6 7 10 15 3 8 1 15 -4 15 -6 0 -10
-7 -10 -15z"/>
<path d="M5700 4135 c7 -8 16 -15 21 -15 5 0 9 7 9 15 0 9 -9 15 -21 15 -18 0
-19 -2 -9 -15z"/>
<path d="M5780 4120 c0 -5 7 -10 16 -10 8 0 12 5 9 10 -3 6 -10 10 -16 10 -5
0 -9 -4 -9 -10z"/>
<path d="M6310 3780 c0 -5 5 -10 10 -10 6 0 10 5 10 10 0 6 -4 10 -10 10 -5 0
-10 -4 -10 -10z"/>
<path d="M4899 3636 c-3 -3 -50 -23 -105 -44 -55 -20 -100 -41 -101 -47 -4
-24 -109 -33 -138 -11 -11 8 -25 12 -32 9 -8 -3 -13 3 -13 16 0 12 -5 21 -10
21 -9 0 -5 -41 6 -61 10 -17 77 -39 121 -39 46 1 67 7 161 46 55 23 92 11 178
-57 51 -41 70 -50 118 -55 34 -4 62 -13 69 -23 7 -9 32 -23 57 -32 25 -9 53
-19 62 -23 22 -10 58 27 58 59 0 14 4 25 10 25 5 0 17 11 25 24 14 21 14 28 3
45 -11 18 -11 23 2 32 13 9 12 10 -2 5 -13 -4 -18 0 -18 14 0 11 5 19 12 18 7
-2 13 3 14 10 1 6 2 16 3 22 0 5 7 7 14 4 7 -2 13 4 14 16 2 28 -9 25 -57 -15
-23 -19 -49 -35 -57 -35 -11 0 -8 6 8 20 31 25 10 25 -46 0 -31 -14 -57 -19
-91 -15 -36 4 -50 1 -59 -12 -11 -15 -14 -13 -26 13 -8 16 -31 37 -53 48 -39
19 -116 33 -127 22z m256 -116 c3 -5 1 -10 -4 -10 -6 0 -11 5 -11 10 0 6 2 10
4 10 3 0 8 -4 11 -10z"/>
<path d="M3345 3360 c-3 -6 1 -7 9 -4 18 7 21 14 7 14 -6 0 -13 -4 -16 -10z"/>
<path d="M3940 3053 c0 -11 -10 -13 -47 -8 -30 4 -43 3 -35 -3 18 -12 -9 -35
-32 -26 -11 4 -16 1 -16 -10 0 -9 -11 -21 -24 -25 -20 -8 -36 -29 -36 -47 0
-3 12 1 28 9 82 43 124 43 217 2 103 -45 102 -45 225 -49 220 -6 210 -5 210
-23 0 -10 -7 -27 -15 -37 -23 -31 -18 -37 10 -12 14 13 25 31 25 41 0 13 5 16
23 11 12 -3 40 -8 62 -11 65 -9 175 -47 168 -58 -4 -6 0 -8 10 -4 14 5 17 -1
17 -37 0 -25 -4 -46 -8 -48 -4 -1 -5 -16 -1 -33 4 -24 7 -14 14 43 8 73 13 83
34 58 7 -9 31 -14 63 -13 l52 0 -3 -49 c-3 -53 7 -55 18 -2 7 32 9 33 54 31
51 -3 59 3 25 17 -19 7 -15 9 22 9 35 0 41 -2 28 -10 -10 -5 -15 -16 -12 -24
4 -11 -1 -15 -16 -15 l-23 0 21 -19 c27 -23 28 -55 3 -82 -14 -16 -21 -17 -27
-8 -4 7 -3 14 4 17 28 9 5 61 -25 56 -7 -1 -17 -2 -23 -3 -5 0 -10 -6 -10 -12
0 -5 5 -7 10 -4 6 3 10 -4 11 -17 0 -21 1 -21 8 -4 5 12 10 16 14 9 13 -20 -3
-40 -27 -36 -30 6 -43 -13 -16 -22 11 -3 24 -4 28 -1 5 3 9 -11 9 -32 1 -20
-1 -31 -4 -24 -6 15 -53 16 -53 1 0 -6 9 -9 19 -6 13 3 21 -1 24 -12 5 -21 34
-23 60 -6 10 7 26 11 37 8 10 -3 21 0 24 6 4 6 18 11 31 11 36 0 85 55 85 96
0 33 20 48 34 25 3 -5 15 -11 26 -14 15 -4 24 1 32 18 6 13 17 21 27 19 28 -7
60 34 62 78 l1 23 6 -23 c4 -13 12 -22 17 -20 14 4 7 31 -13 46 -11 8 -16 24
-14 45 2 29 1 30 -11 15 -8 -10 -21 -18 -30 -18 -9 0 -22 -8 -29 -17 -23 -31
-54 -28 -66 7 -6 16 -22 34 -34 39 -13 5 -30 16 -37 25 -7 9 -23 16 -35 16
-12 0 -27 5 -33 11 -9 9 -24 9 -55 1 -24 -5 -58 -9 -75 -8 -18 1 -44 3 -58 4
-17 1 -23 6 -19 17 5 12 -4 15 -49 15 -41 0 -56 4 -61 16 -4 10 -14 14 -26 11
-14 -4 -20 0 -21 11 0 14 -1 15 -7 2 -8 -18 -62 -26 -62 -10 0 8 -24 9 -77 5
-192 -17 -320 -19 -413 -5 -92 13 -142 29 -135 41 4 5 -6 9 -22 10 -24 0 -25
1 -8 9 16 6 17 9 5 13 -42 14 -60 15 -60 0z m1003 -280 c-7 -2 -19 -2 -25 0
-7 3 -2 5 12 5 14 0 19 -2 13 -5z m184 -15 c23 -8 33 -18 32 -33 0 -11 -3 -14
-6 -7 -8 21 -22 3 -17 -23 2 -13 0 -26 -6 -30 -5 -3 -12 12 -16 35 -4 23 -13
44 -20 47 -14 5 -20 23 -7 23 4 0 22 -5 40 -12z m-66 -37 c-9 -6 -10 -10 -2
-16 10 -5 13 -75 4 -75 -11 0 -23 60 -18 89 5 26 9 31 18 22 9 -9 9 -14 -2
-20z"/>
<path d="M4296 2871 c-4 -7 -5 -15 -2 -18 9 -9 19 4 14 18 -4 11 -6 11 -12 0z"/>
<path d="M4306 2823 c5 -5 12 -12 16 -18 4 -6 8 -2 8 8 0 9 -7 17 -17 17 -9 0
-12 -3 -7 -7z"/>
<path d="M4542 2796 c-14 -30 -9 -47 9 -29 6 6 9 21 7 34 -3 23 -3 23 -16 -5z"/>
<path d="M3142 2788 c-7 -7 -12 -26 -11 -42 0 -17 3 -24 6 -16 2 8 9 25 15 37
13 27 7 38 -10 21z"/>
<path d="M4605 2750 c-3 -5 -1 -10 4 -10 6 0 11 5 11 10 0 6 -2 10 -4 10 -3 0
-8 -4 -11 -10z"/>
<path d="M4760 2715 c0 -8 4 -15 10 -15 5 0 7 7 4 15 -4 8 -8 15 -10 15 -2 0
-4 -7 -4 -15z"/>
<path d="M5431 2614 c0 -11 3 -14 6 -6 3 7 2 16 -1 19 -3 4 -6 -2 -5 -13z"/>
<path d="M4442 2518 c-16 -16 -15 -25 6 -46 37 -37 80 -61 127 -70 28 -6 79
-17 115 -25 106 -24 180 -34 186 -25 3 4 10 6 15 2 5 -3 17 0 25 7 9 7 22 14
30 16 34 7 40 9 52 16 7 5 12 4 12 -2 0 -6 5 -11 10 -11 6 0 10 10 10 21 0 16
5 20 19 16 14 -3 20 2 24 20 4 23 2 24 -22 18 -48 -14 -201 -17 -216 -5 -7 6
-33 10 -57 9 -23 0 -72 4 -108 11 -36 6 -88 15 -116 20 -28 4 -63 15 -76 24
-19 12 -27 13 -36 4z"/>
<path d="M4760 2510 c0 -18 49 -35 62 -22 9 9 7 12 -9 12 -12 0 -25 5 -28 10
-8 13 -25 13 -25 0z"/>
<path d="M4665 2500 c3 -5 8 -10 11 -10 2 0 4 5 4 10 0 6 -5 10 -11 10 -5 0
-7 -4 -4 -10z"/>
<path d="M3146 3612 c-4 -29 -10 -52 -14 -52 -4 0 -7 -37 -7 -82 -1 -78 12
-74 14 5 1 20 5 37 11 37 5 0 7 7 4 15 -3 8 -1 29 5 48 7 21 8 43 3 57 -8 21
-10 16 -16 -28z"/>
<path d="M3112 3490 c0 -19 2 -27 5 -17 2 9 2 25 0 35 -3 9 -5 1 -5 -18z"/>
<path d="M3155 3411 c-3 -5 -1 -12 5 -16 5 -3 10 1 10 9 0 18 -6 21 -15 7z"/>
<path d="M3049 3340 c-7 -20 4 -98 12 -85 4 6 4 30 0 55 -4 25 -9 38 -12 30z"/>
<path d="M2891 3270 c-1 -8 -4 -26 -7 -40 -5 -19 -4 -22 5 -14 7 6 11 24 8 40
-2 16 -5 22 -6 14z"/>
<path d="M3076 3201 c-4 -7 -5 -15 -2 -18 9 -9 19 4 14 18 -4 11 -6 11 -12 0z"/>
<path d="M2910 3066 c0 -30 5 -58 10 -61 6 -4 10 16 9 54 -2 76 -19 81 -19 7z"/>
<path d="M3010 3089 c0 -5 5 -7 10 -4 6 3 10 8 10 11 0 2 -4 4 -10 4 -5 0 -10
-5 -10 -11z"/>
<path d="M3077 3076 c-11 -27 -8 -36 8 -36 16 0 17 5 6 34 -7 18 -8 18 -14 2z"/>
<path d="M3021 2894 c0 -11 3 -14 6 -6 3 7 2 16 -1 19 -3 4 -6 -2 -5 -13z"/>
<path d="M3021 2844 c0 -11 3 -14 6 -6 3 7 2 16 -1 19 -3 4 -6 -2 -5 -13z"/>
<path d="M3062 2825 c-15 -32 -15 -35 1 -35 6 0 13 14 14 30 3 37 0 38 -15 5z"/>
<path d="M6820 2415 c0 -5 5 -17 10 -25 5 -8 10 -10 10 -5 0 6 -5 17 -10 25
-5 8 -10 11 -10 5z"/>
<path d="M6634 2252 c-16 -11 -46 -81 -40 -95 2 -7 5 -4 5 6 1 10 5 15 11 12
5 -3 7 0 4 9 -3 8 -2 20 2 27 11 18 34 -18 34 -53 0 -18 5 -28 15 -28 9 0 12
6 8 18 -6 15 -4 15 16 -3 l22 -19 -7 29 c-9 39 -11 40 -29 25 -13 -11 -15 -8
-15 24 0 20 -5 36 -11 36 -5 0 -7 5 -4 10 7 12 4 12 -11 2z"/>
<path d="M6600 2122 c0 -12 4 -22 9 -22 10 0 9 26 -2 36 -4 4 -7 -2 -7 -14z"/>
<path d="M6696 2095 c-3 -8 -1 -15 4 -15 13 0 22 18 11 24 -5 3 -11 -1 -15 -9z"/>
<path d="M6704 2050 c3 -14 6 -33 6 -43 0 -10 5 -15 10 -12 11 7 3 55 -13 70
-6 7 -8 2 -3 -15z"/>
<path d="M6644 2015 c-1 -40 0 -44 15 -33 9 7 17 13 19 14 4 2 -27 64 -31 64
-1 0 -3 -20 -3 -45z"/>
<path d="M6570 2015 c0 -8 4 -15 10 -15 5 0 7 7 4 15 -4 8 -8 15 -10 15 -2 0
-4 -7 -4 -15z"/>
<path d="M6603 1951 c8 -23 13 -28 15 -16 2 10 -3 25 -12 33 -14 15 -15 13 -3
-17z"/>
<path d="M791 1944 c0 -11 3 -14 6 -6 3 7 2 16 -1 19 -3 4 -6 -2 -5 -13z"/>
<path d="M793 1873 c-21 -8 -15 -22 7 -16 11 3 20 9 20 14 0 10 -8 10 -27 2z"/>
<path d="M6705 1830 c-3 -5 1 -10 9 -10 9 0 16 5 16 10 0 6 -4 10 -9 10 -6 0
-13 -4 -16 -10z"/>
<path d="M1088 7128 c-34 -34 -57 -63 -51 -65 12 -4 58 35 58 49 0 4 15 17 34
30 19 13 36 29 39 36 9 27 -20 9 -80 -50z"/>
<path d="M6925 7130 c-3 -5 -1 -10 4 -10 6 0 11 5 11 10 0 6 -2 10 -4 10 -3 0
-8 -4 -11 -10z"/>
<path d="M7191 7104 c0 -11 3 -14 6 -6 3 7 2 16 -1 19 -3 4 -6 -2 -5 -13z"/>
<path d="M6933 7075 c0 -22 2 -30 4 -17 2 12 2 30 0 40 -3 9 -5 -1 -4 -23z"/>
<path d="M1105 7076 c-11 -12 -19 -26 -17 -33 1 -7 -9 -20 -24 -29 -21 -14
-25 -24 -22 -50 2 -18 0 -30 -5 -27 -21 13 -94 -111 -77 -132 7 -8 0 -19 -21
-34 -21 -16 -29 -29 -26 -42 3 -10 2 -17 -3 -14 -4 3 -11 -2 -14 -11 -9 -23
-7 -36 4 -29 17 10 -9 -47 -27 -60 -12 -9 -13 -14 -4 -20 9 -5 7 -11 -8 -22
-12 -8 -21 -25 -21 -38 0 -13 -10 -31 -22 -39 -22 -16 -21 -16 18 -16 l41 0
13 54 c7 30 19 57 26 60 8 3 14 12 14 21 0 9 9 35 20 57 11 23 20 50 20 60 0
10 5 18 10 18 6 0 10 6 10 14 0 17 62 139 73 144 4 2 7 12 7 23 0 10 5 19 10
19 6 0 10 7 10 15 0 8 4 15 9 15 5 0 12 8 16 19 3 10 14 29 25 41 11 13 20 29
20 35 0 22 -34 22 -55 1z m-161 -352 c3 -8 2 -12 -4 -9 -6 3 -10 10 -10 16 0
14 7 11 14 -7z m-24 -88 c0 -3 -4 -8 -10 -11 -5 -3 -10 -1 -10 4 0 6 5 11 10
11 6 0 10 -2 10 -4z"/>
<path d="M7181 7058 c-1 -40 -12 -63 -22 -47 -20 32 -15 -3 9 -76 l27 -80 3
91 c1 50 -2 101 -7 115 l-10 24 0 -27z"/>
<path d="M1004 7027 c-12 -12 -29 -38 -39 -57 -10 -18 -24 -41 -32 -48 -14
-14 -84 -159 -98 -201 -4 -12 0 -21 11 -25 12 -5 15 -2 10 10 -7 19 22 104 35
104 5 0 9 5 9 12 0 6 9 31 21 55 17 35 24 41 35 32 11 -9 14 -7 14 14 0 14 5
29 10 32 6 3 10 13 10 22 0 9 10 27 22 40 12 13 19 25 17 27 -2 3 -14 -5 -25
-17z"/>
<path d="M6927 7012 c-5 -7 -6 -28 -3 -47 5 -27 4 -33 -11 -31 -12 0 -19 -7
-21 -22 -2 -12 -7 -20 -11 -18 -4 3 -8 -11 -9 -30 -2 -45 -20 -114 -31 -114
-11 0 -1 -49 11 -56 5 -3 5 -11 -2 -19 -7 -9 -6 -16 5 -25 8 -7 15 -17 15 -22
0 -5 6 -16 14 -24 12 -12 15 -5 21 51 4 36 11 62 16 59 5 -3 10 5 10 18 1 13
2 30 3 38 1 8 4 20 7 25 14 21 21 78 10 71 -6 -4 -11 -17 -11 -29 0 -32 -16
-8 -24 35 -5 28 -3 39 9 46 12 6 15 21 13 58 -2 31 -6 44 -11 36z m-10 -208
c-3 -3 -12 -4 -19 -1 -8 3 -5 6 6 6 11 1 17 -2 13 -5z"/>
<path d="M1730 6919 c0 -5 5 -7 10 -4 6 3 10 8 10 11 0 2 -4 4 -10 4 -5 0 -10
-5 -10 -11z"/>
<path d="M6780 6921 c0 -5 5 -13 10 -16 6 -3 10 -2 10 4 0 5 -4 13 -10 16 -5
3 -10 2 -10 -4z"/>
<path d="M6802 6860 c0 -14 2 -19 5 -12 2 6 2 18 0 25 -3 6 -5 1 -5 -13z"/>
<path d="M6600 6849 c0 -6 8 -23 19 -37 10 -15 21 -34 24 -42 7 -20 9 18 1 45
-6 24 -44 52 -44 34z"/>
<path d="M7188 6816 c-3 -14 -1 -31 3 -38 6 -8 9 1 9 25 0 42 -6 48 -12 13z"/>
<path d="M1581 6753 c-1 -22 -6 -33 -16 -33 -19 0 -19 -9 0 -34 14 -18 15 -18
24 6 5 14 6 40 1 59 l-8 34 -1 -32z"/>
<path d="M1610 6765 c0 -8 2 -15 4 -15 2 0 6 7 10 15 3 8 1 15 -4 15 -6 0 -10
-7 -10 -15z"/>
<path d="M1080 6738 c0 -9 5 -20 10 -23 13 -8 13 5 0 25 -8 13 -10 13 -10 -2z"/>
<path d="M1682 6715 c-1 -36 17 -50 20 -15 0 11 1 25 2 32 1 6 -4 13 -10 15
-6 2 -11 -11 -12 -32z"/>
<path d="M1822 6705 c-24 -18 -33 -80 -9 -72 6 2 11 12 9 21 -2 9 6 20 16 24
13 5 17 13 13 25 -6 16 -8 16 -29 2z"/>
<path d="M1637 6673 c-8 -15 -18 -47 -22 -70 -4 -24 -10 -43 -14 -43 -8 0 -48
-103 -58 -150 -3 -14 -12 -34 -19 -45 -8 -11 -14 -26 -14 -34 0 -24 38 17 50
55 7 19 15 32 19 29 5 -2 11 20 15 50 7 59 39 127 49 103 4 -7 4 -2 1 12 -3
14 -1 46 5 70 12 54 8 62 -12 23z"/>
<path d="M7181 6654 c0 -11 3 -14 6 -6 3 7 2 16 -1 19 -3 4 -6 -2 -5 -13z"/>
<path d="M1680 6633 c0 -25 1 -26 20 -8 21 19 18 35 -6 35 -9 0 -14 -10 -14
-27z"/>
<path d="M6690 6654 c0 -3 9 -17 19 -30 17 -21 20 -22 25 -7 5 11 1 22 -10 30
-19 14 -34 17 -34 7z"/>
<path d="M776 6567 c-29 -94 -30 -97 -16 -97 6 0 10 10 10 23 0 12 11 52 24
90 13 37 21 67 17 67 -5 0 -20 -37 -35 -83z"/>
<path d="M1850 6624 c-6 -14 -10 -36 -10 -50 0 -14 -6 -39 -13 -57 -7 -18 -10
-45 -7 -62 5 -26 7 -23 14 25 4 30 12 57 17 61 10 6 21 109 12 109 -2 0 -8
-12 -13 -26z"/>
<path d="M1884 6625 c-8 -19 2 -45 16 -45 8 0 7 6 0 20 -6 11 -8 25 -5 30 3 6
4 10 0 10 -3 0 -8 -7 -11 -15z"/>
<path d="M2026 6624 c-11 -27 -7 -37 9 -24 16 14 20 40 6 40 -5 0 -12 -7 -15
-16z"/>
<path d="M7175 6598 c-3 -13 -6 -50 -8 -83 l-2 -60 -45 -22 c-51 -25 -32 -31
24 -8 35 15 36 17 37 68 0 28 1 69 3 90 3 41 -1 49 -9 15z"/>
<path d="M1770 6595 c0 -8 5 -15 10 -15 6 0 10 7 10 15 0 8 -4 15 -10 15 -5 0
-10 -7 -10 -15z"/>
<path d="M6774 6568 c3 -18 10 -34 15 -38 4 -3 11 -22 14 -44 6 -40 31 -76 52
-76 8 0 10 -10 7 -25 -5 -27 35 -165 49 -165 4 0 10 -10 12 -22 4 -21 4 -21 6
3 0 14 -4 30 -11 37 -15 15 -37 97 -38 141 0 22 -10 44 -30 68 -17 19 -28 38
-25 43 3 5 -4 25 -15 45 -11 19 -20 42 -20 50 0 8 -5 15 -11 15 -8 0 -9 -11
-5 -32z"/>
<path d="M6737 6540 c3 -30 9 -59 14 -64 14 -15 9 45 -6 84 -14 35 -14 35 -8
-20z"/>
<path d="M1640 6521 c-9 -9 -21 -43 -26 -74 l-11 -57 28 0 c28 0 44 12 32 24
-3 3 -12 1 -20 -5 -17 -15 -18 16 -1 71 15 47 23 50 36 13 l10 -28 1 26 c1 23
-15 50 -28 48 -4 0 -13 -8 -21 -18z"/>
<path d="M1920 6521 c0 -7 -4 -9 -10 -6 -5 3 -10 1 -10 -4 0 -6 4 -11 9 -11
13 0 25 20 17 27 -3 4 -6 1 -6 -6z"/>
<path d="M1001 6481 c-8 -5 -9 -11 -3 -15 5 -3 15 1 22 9 14 16 3 20 -19 6z"/>
<path d="M1430 6465 c0 -14 2 -25 4 -25 2 0 6 11 8 25 3 14 1 25 -3 25 -5 0
-9 -11 -9 -25z"/>
<path d="M1660 6465 c0 -8 4 -15 10 -15 5 0 7 7 4 15 -4 8 -8 15 -10 15 -2 0
-4 -7 -4 -15z"/>
<path d="M956 6444 c-8 -21 -4 -25 14 -14 11 7 12 12 4 20 -8 8 -13 7 -18 -6z"/>
<path d="M1797 6424 c-4 -4 -7 -14 -7 -23 0 -11 3 -12 11 -4 6 6 10 16 7 23
-2 6 -7 8 -11 4z"/>
<path d="M1925 6400 c3 -5 8 -10 11 -10 2 0 4 5 4 10 0 6 -5 10 -11 10 -5 0
-7 -4 -4 -10z"/>
<path d="M983 6387 c4 -10 7 -23 7 -28 0 -5 5 -9 10 -9 16 0 12 26 -7 41 -15
12 -16 12 -10 -4z"/>
<path d="M1694 6392 c-6 -4 -14 -16 -18 -27 -7 -19 -5 -18 15 2 22 22 24 39 3
25z"/>
<path d="M1452 6291 c4 -13 18 -16 19 -4 0 4 -5 9 -11 12 -7 2 -11 -2 -8 -8z"/>
<path d="M1760 6286 c0 -8 -3 -23 -6 -33 -5 -12 -4 -15 3 -8 16 15 26 55 14
55 -6 0 -11 -6 -11 -14z"/>
<path d="M1422 6227 c-7 -18 -12 -42 -11 -53 0 -13 4 -10 11 11 6 17 15 36 21
43 6 8 7 16 1 22 -7 7 -14 -2 -22 -23z"/>
<path d="M1720 6240 c0 -5 5 -10 11 -10 5 0 7 5 4 10 -3 6 -8 10 -11 10 -2 0
-4 -4 -4 -10z"/>
<path d="M1730 6186 c0 -7 -7 -19 -15 -26 -16 -13 -21 -50 -7 -50 7 0 25 30
50 83 2 4 -3 7 -12 7 -9 0 -16 -6 -16 -14z"/>
<path d="M1312 6168 c-7 -7 -12 -23 -12 -37 0 -30 15 -17 24 22 7 30 5 32 -12
15z"/>
<path d="M1767 6145 c-4 -8 -2 -17 2 -20 5 -2 11 4 14 15 6 23 -8 27 -16 5z"/>
<path d="M1400 6110 c0 -5 5 -10 10 -10 6 0 10 5 10 10 0 6 -4 10 -10 10 -5 0
-10 -4 -10 -10z"/>
<path d="M1803 6083 c-7 -3 -13 -9 -13 -14 0 -12 37 -12 44 0 7 11 -14 20 -31
14z"/>
<path d="M1275 6069 c-4 -6 -5 -12 -2 -15 2 -3 7 2 10 11 7 17 1 20 -8 4z"/>
<path d="M1337 6050 c-3 -11 -1 -20 4 -20 5 0 9 9 9 20 0 11 -2 20 -4 20 -2 0
-6 -9 -9 -20z"/>
<path d="M6971 6029 c-1 -9 9 -45 20 -80 12 -35 22 -83 23 -106 1 -52 16 -32
15 22 0 38 -57 198 -58 164z"/>
<path d="M1396 6013 c-12 -12 -6 -43 9 -43 8 0 15 9 15 19 0 21 -13 34 -24 24z"/>
<path d="M1250 5905 c-7 -14 -20 -25 -29 -25 -14 0 -14 -2 -1 -10 23 -15 26
-13 40 20 16 38 8 49 -10 15z"/>
<path d="M615 5850 c-3 -5 -1 -10 4 -10 6 0 11 5 11 10 0 6 -2 10 -4 10 -3 0
-8 -4 -11 -10z"/>
<path d="M645 5770 c-3 -5 -1 -10 4 -10 6 0 11 5 11 10 0 6 -2 10 -4 10 -3 0
-8 -4 -11 -10z"/>
<path d="M7028 5763 c7 -3 16 -2 19 1 4 3 -2 6 -13 5 -11 0 -14 -3 -6 -6z"/>
<path d="M666 5731 c-4 -5 3 -7 14 -4 23 6 26 13 6 13 -8 0 -17 -4 -20 -9z"/>
<path d="M642 5710 c0 -14 2 -19 5 -12 2 6 2 18 0 25 -3 6 -5 1 -5 -13z"/>
<path d="M1334 5715 c-8 -19 5 -38 22 -31 8 3 14 0 15 -7 0 -7 4 -3 8 8 5 12
3 24 -5 32 -17 17 -33 16 -40 -2z"/>
<path d="M1307 5668 c-7 -25 -3 -33 12 -23 13 8 15 45 2 45 -5 0 -11 -10 -14
-22z"/>
<path d="M581 5656 c-19 -23 4 -28 24 -6 15 17 16 20 3 20 -9 0 -21 -6 -27
-14z"/>
<path d="M7082 5620 c0 -19 2 -27 5 -17 2 9 2 25 0 35 -3 9 -5 1 -5 -18z"/>
<path d="M1268 5618 c-19 -19 -24 -38 -10 -38 8 0 36 50 30 55 -2 1 -11 -7
-20 -17z"/>
<path d="M1310 5594 c0 -8 5 -12 10 -9 6 3 10 10 10 16 0 5 -4 9 -10 9 -5 0
-10 -7 -10 -16z"/>
<path d="M521 5250 c0 -8 6 -24 14 -34 19 -25 19 -9 0 24 -8 14 -14 19 -14 10z"/>
<path d="M655 5197 c-8 -19 12 -77 26 -77 12 0 12 33 0 46 -5 5 -11 18 -13 29
-5 18 -6 19 -13 2z"/>
<path d="M790 5160 c0 -16 -4 -20 -15 -16 -9 3 -18 -1 -22 -10 -7 -20 1 -27
25 -20 21 7 36 52 21 62 -5 3 -9 -5 -9 -16z"/>
<path d="M930 5115 c0 -14 4 -25 10 -25 5 0 9 11 8 25 -1 14 -6 25 -10 25 -4
0 -8 -11 -8 -25z"/>
<path d="M962 5108 c1 -18 -3 -33 -10 -36 -6 -2 -12 -12 -12 -23 0 -31 29 -11
39 28 10 36 6 63 -10 63 -5 0 -8 -14 -7 -32z"/>
<path d="M675 5090 c-8 -13 4 -32 16 -25 12 8 12 35 0 35 -6 0 -13 -4 -16 -10z"/>
<path d="M643 5043 c-7 -2 -13 -14 -12 -26 0 -15 2 -17 6 -7 4 8 13 20 22 27
16 12 7 16 -16 6z"/>
<path d="M850 5019 c-18 -15 -20 -19 -7 -15 11 3 30 9 43 12 13 3 24 10 24 15
0 16 -34 9 -60 -12z"/>
<path d="M935 5010 c-3 -5 -1 -10 4 -10 6 0 11 5 11 10 0 6 -2 10 -4 10 -3 0
-8 -4 -11 -10z"/>
<path d="M310 4974 c0 -7 52 -25 57 -20 2 2 -10 8 -26 14 -17 6 -31 9 -31 6z"/>
<path d="M815 4960 c-3 -5 1 -10 10 -10 9 0 13 5 10 10 -3 6 -8 10 -10 10 -2
0 -7 -4 -10 -10z"/>
<path d="M602 4920 c-18 -29 -15 -38 4 -12 9 13 14 25 12 27 -2 2 -9 -5 -16
-15z"/>
<path d="M406 4911 c29 -19 34 -20 59 -7 l28 15 -34 -1 c-19 0 -45 2 -59 6
-22 7 -22 5 6 -13z"/>
<path d="M820 4909 c0 -5 5 -7 10 -4 6 3 10 8 10 11 0 2 -4 4 -10 4 -5 0 -10
-5 -10 -11z"/>
<path d="M865 4880 c-3 -6 1 -7 9 -4 18 7 21 14 7 14 -6 0 -13 -4 -16 -10z"/>
<path d="M587 4794 c-4 -4 -7 -14 -7 -23 0 -11 3 -12 11 -4 6 6 10 16 7 23 -2
6 -7 8 -11 4z"/>
<path d="M620 4770 c0 -5 5 -10 10 -10 6 0 10 5 10 10 0 6 -4 10 -10 10 -5 0
-10 -4 -10 -10z"/>
<path d="M527 4763 c-4 -3 -7 -11 -7 -17 0 -6 5 -5 12 2 6 6 9 14 7 17 -3 3
-9 2 -12 -2z"/>
<path d="M565 4719 c-4 -6 -5 -12 -2 -15 2 -3 7 2 10 11 7 17 1 20 -8 4z"/>
<path d="M536 4675 c4 -8 8 -15 10 -15 2 0 4 7 4 15 0 8 -4 15 -10 15 -5 0 -7
-7 -4 -15z"/>
<path d="M650 4610 c0 -5 5 -10 10 -10 6 0 10 5 10 10 0 6 -4 10 -10 10 -5 0
-10 -4 -10 -10z"/>
<path d="M628 4594 c-4 -4 -3 -15 3 -26 7 -14 16 -17 32 -12 19 6 20 5 9 -9
-14 -16 -9 -37 8 -37 20 0 5 52 -16 60 -12 5 -24 14 -26 20 -2 6 -7 8 -10 4z"/>
<path d="M7141 4545 c0 -31 2 -36 9 -23 6 10 7 25 1 40 -9 20 -10 18 -10 -17z"/>
<path d="M7183 4427 c-1 -77 1 -136 4 -133 10 10 14 189 5 231 -6 30 -8 4 -9
-98z"/>
<path d="M910 4299 c0 -11 5 -17 10 -14 6 3 10 13 10 21 0 8 -4 14 -10 14 -5
0 -10 -9 -10 -21z"/>
<path d="M936 4261 c-4 -7 -5 -15 -2 -18 9 -9 19 4 14 18 -4 11 -6 11 -12 0z"/>
<path d="M7047 3575 c-11 -8 -17 -22 -15 -37 3 -22 5 -21 22 10 20 39 18 46
-7 27z"/>
<path d="M7181 3565 c1 -19 18 -51 18 -35 0 8 -4 22 -9 30 -5 8 -9 11 -9 5z"/>
<path d="M7080 3190 c0 -5 9 -14 20 -20 22 -12 27 -1 8 18 -14 14 -28 16 -28
2z"/>
<path d="M238 3168 c-20 -10 -42 -27 -48 -39 -9 -16 -14 -18 -25 -9 -11 9 -18
7 -32 -9 -9 -12 -23 -21 -30 -21 -7 0 -13 -4 -13 -10 0 -5 5 -10 10 -10 6 0
10 -4 10 -8 0 -12 -50 -33 -61 -27 -5 4 -9 0 -9 -7 0 -7 -9 -30 -20 -51 -11
-20 -20 -52 -19 -69 0 -29 1 -30 9 -12 5 12 13 25 19 29 6 3 11 15 11 26 0 10
7 19 15 19 8 0 24 9 35 20 11 11 22 20 25 20 8 0 88 85 100 105 6 10 14 16 17
14 7 -4 53 50 47 55 -2 1 -21 -6 -41 -16z"/>
<path d="M165 3170 c-3 -5 1 -10 9 -10 8 0 18 5 21 10 3 6 -1 10 -9 10 -8 0
-18 -4 -21 -10z"/>
<path d="M7140 2909 c0 -5 5 -7 10 -4 6 3 10 8 10 11 0 2 -4 4 -10 4 -5 0 -10
-5 -10 -11z"/>
<path d="M275 2890 c-3 -5 -1 -10 4 -10 6 0 11 5 11 10 0 6 -2 10 -4 10 -3 0
-8 -4 -11 -10z"/>
<path d="M7161 2843 c7 -12 15 -20 18 -17 3 2 -3 12 -13 22 -17 16 -18 16 -5
-5z"/>
<path d="M80 2709 c0 -5 5 -7 10 -4 6 3 10 8 10 11 0 2 -4 4 -10 4 -5 0 -10
-5 -10 -11z"/>
<path d="M250 2710 c0 -5 5 -10 10 -10 6 0 10 5 10 10 0 6 -4 10 -10 10 -5 0
-10 -4 -10 -10z"/>
<path d="M125 2699 c-10 -15 3 -25 16 -12 7 7 7 13 1 17 -6 3 -14 1 -17 -5z"/>
<path d="M165 2681 c-3 -5 -1 -12 5 -16 5 -3 10 1 10 9 0 18 -6 21 -15 7z"/>
<path d="M66 2662 c-3 -6 -1 -14 5 -17 15 -10 25 3 12 16 -7 7 -13 7 -17 1z"/>
<path d="M118 2633 c7 -3 16 -2 19 1 4 3 -2 6 -13 5 -11 0 -14 -3 -6 -6z"/>
<path d="M7105 2600 c-3 -6 1 -7 9 -4 18 7 21 14 7 14 -6 0 -13 -4 -16 -10z"/>
<path d="M2 2565 c0 -16 2 -22 5 -12 2 9 2 23 0 30 -3 6 -5 -1 -5 -18z"/>
<path d="M7010 2564 c0 -8 5 -12 10 -9 6 3 10 10 10 16 0 5 -4 9 -10 9 -5 0
-10 -7 -10 -16z"/>
<path d="M7012 2510 c0 -14 2 -19 5 -12 2 6 2 18 0 25 -3 6 -5 1 -5 -13z"/>
<path d="M71 2384 c0 -11 3 -14 6 -6 3 7 2 16 -1 19 -3 4 -6 -2 -5 -13z"/>
<path d="M300 2335 c-8 -9 -8 -15 -2 -15 12 0 26 19 19 26 -2 2 -10 -2 -17
-11z"/>
<path d="M6960 2265 c-7 -9 -11 -18 -8 -20 3 -3 11 1 18 10 7 9 11 18 8 20 -3
3 -11 -1 -18 -10z"/>
<path d="M90 2190 c0 -5 7 -7 15 -4 8 4 15 8 15 10 0 2 -7 4 -15 4 -8 0 -15
-4 -15 -10z"/>
<path d="M170 2175 c0 -8 5 -15 10 -15 6 0 10 7 10 15 0 8 -4 15 -10 15 -5 0
-10 -7 -10 -15z"/>
<path d="M6905 2160 c-3 -5 -1 -10 4 -10 6 0 11 5 11 10 0 6 -2 10 -4 10 -3 0
-8 -4 -11 -10z"/>
<path d="M45 2150 c3 -5 8 -10 11 -10 2 0 4 5 4 10 0 6 -5 10 -11 10 -5 0 -7
-4 -4 -10z"/>
<path d="M6922 2110 c0 -14 2 -19 5 -12 2 6 2 18 0 25 -3 6 -5 1 -5 -13z"/>
</g>
</svg>
